M48
; DRILL file {KiCad 5.1.10} date Fri Nov 19 21:52:51 2021
; FORMAT={-:-/ absolute / metric / decimal}
; #@! TF.CreationDate,2021-11-19T21:52:51-06:00
; #@! TF.GenerationSoftware,Kicad,Pcbnew,5.1.10
; #@! TF.FileFunction,NonPlated,1,2,NPTH
FMAT,2
METRIC
T1C0.800
T2C0.900
T3C1.700
T4C1.800
T5C4.900
%
G90
G05
T1
X186.959Y-142.527
X186.959Y-142.527
T2
X272.102Y-129.266
X272.102Y-129.266
X272.264Y-126.271
X272.264Y-126.271
T3
X182.581Y-86.283
X184.912Y-105.232
X187.242Y-124.182
X192.665Y-85.044
X194.996Y-103.994
X197.327Y-122.944
X202.461Y-74.146
X203.886Y-93.132
X205.324Y-112.073
X212.593Y-73.384
X214.017Y-92.37
X215.455Y-111.311
X223.947Y-66.686
X224.051Y-85.738
X224.155Y-104.79
X234.107Y-66.633
X234.211Y-85.685
X234.315Y-104.736
X243.036Y-109.176
X243.839Y-134.379
X244.064Y-90.204
X245.091Y-71.232
X253.182Y-109.726
X253.685Y-136.889
X254.209Y-90.753
X255.237Y-71.781
X261.855Y-113.033
X262.883Y-94.061
X262.978Y-140.019
X263.91Y-75.088
X272.001Y-113.582
X272.494Y-143.577
X273.028Y-94.61
X274.056Y-75.638
T4
X182.164Y-86.334
X184.495Y-105.283
X186.826Y-124.233
X193.082Y-84.993
X195.413Y-103.943
X197.744Y-122.893
X202.042Y-74.177
X203.467Y-93.163
X204.905Y-112.105
X213.011Y-73.353
X214.436Y-92.338
X215.874Y-111.28
X223.527Y-66.688
X223.631Y-85.74
X223.735Y-104.792
X234.527Y-66.631
X234.631Y-85.682
X234.735Y-104.734
X242.617Y-109.154
X243.432Y-134.275
X243.645Y-90.181
X244.672Y-71.209
X253.601Y-109.748
X254.092Y-136.992
X254.629Y-90.776
X255.656Y-71.804
X261.436Y-113.01
X262.464Y-94.038
X262.584Y-139.872
X263.491Y-75.066
X272.42Y-113.605
X272.888Y-143.724
X273.447Y-94.633
X274.475Y-75.661
T5
X187.623Y-85.663
X189.954Y-104.613
X192.285Y-123.563
X207.527Y-73.765
X208.952Y-92.751
X210.389Y-111.692
X229.027Y-66.66
X229.131Y-85.711
X229.235Y-104.763
X248.109Y-109.451
X248.762Y-135.634
X249.137Y-90.479
X250.164Y-71.506
X266.928Y-113.308
X267.736Y-141.798
X267.955Y-94.335
X268.983Y-75.363
T0
M30
