M48
; DRILL file {KiCad 5.1.10} date Fri Nov 19 21:52:51 2021
; FORMAT={-:-/ absolute / metric / decimal}
; #@! TF.CreationDate,2021-11-19T21:52:51-06:00
; #@! TF.GenerationSoftware,Kicad,Pcbnew,5.1.10
; #@! TF.FileFunction,Plated,1,2,PTH
FMAT,2
METRIC
T1C0.300
T2C0.400
T3C0.800
T4C0.813
%
G90
G05
T2
X186.752Y-139.486
X188.882Y-148.506
X191.402Y-148.145
X193.726Y-143.993
X197.402Y-136.126
X199.905Y-135.806
X200.152Y-142.494
X202.223Y-142.201
X202.32Y-135.398
X204.745Y-141.965
X204.963Y-135.219
X207.267Y-141.729
X207.492Y-134.925
X209.789Y-141.493
X209.996Y-134.606
X212.312Y-141.256
X212.515Y-134.246
X214.834Y-141.02
X215.037Y-134.011
X268.478Y-128.422
T3
X223.012Y-137.922
X223.252Y-139.908
T4
X188.381Y-134.55
X190.183Y-149.663
X190.903Y-134.249
X192.705Y-149.362
X193.425Y-133.948
X195.227Y-149.061
X195.947Y-133.647
X197.749Y-148.76
X198.469Y-133.347
X200.271Y-148.46
X200.992Y-133.046
X202.794Y-148.159
X203.514Y-132.745
X205.316Y-147.858
X206.036Y-132.444
X207.838Y-147.557
X208.558Y-132.144
X210.36Y-147.257
X211.08Y-131.843
X212.882Y-146.956
X213.602Y-131.542
X215.404Y-146.655
X216.124Y-131.242
X217.926Y-146.354
T1
X181.637Y-80.81G85X182.331Y-80.718
G05
X183.968Y-99.76G85X184.662Y-99.668
G05
X186.299Y-118.709G85X186.993Y-118.618
G05
X187.995Y-91.562G85X188.69Y-91.477
G05
X190.326Y-110.512G85X191.02Y-110.427
G05
X191.563Y-79.591G85X192.257Y-79.5
G05
X192.656Y-129.462G85X193.351Y-129.376
G05
X193.893Y-98.541G85X194.587Y-98.45
G05
X196.224Y-117.491G85X196.918Y-117.399
G05
X201.776Y-68.635G85X202.474Y-68.576
G05
X203.201Y-87.621G85X203.898Y-87.562
G05
X204.639Y-106.562G85X205.336Y-106.503
G05
X207.62Y-79.675G85X208.318Y-79.622
G05
X209.045Y-98.66G85X209.743Y-98.608
G05
X210.483Y-117.602G85X211.181Y-117.549
G05
X211.748Y-67.885G85X212.445Y-67.826
G05
X213.173Y-86.871G85X213.87Y-86.812
G05
X214.61Y-105.812G85X215.308Y-105.754
G05
X223.648Y-61.141G85X224.348Y-61.131
G05
X223.752Y-80.192G85X224.452Y-80.183
G05
X223.856Y-99.244G85X224.556Y-99.234
G05
X228.708Y-72.561G85X229.408Y-72.558
G05
X228.812Y-91.613G85X229.512Y-91.609
G05
X228.915Y-110.665G85X229.615Y-110.661
G05
X233.648Y-61.088G85X234.348Y-61.079
G05
X233.752Y-80.14G85X234.452Y-80.13
G05
X233.855Y-99.192G85X234.555Y-99.182
G05
X243.067Y-103.623G85X243.766Y-103.655
G05
X244.094Y-84.651G85X244.794Y-84.682
G05
X244.948Y-128.937G85X245.628Y-129.104
G05
X245.122Y-65.678G85X245.821Y-65.71
G05
X246.966Y-141.265G85X247.644Y-141.438
G05
X247.44Y-115.323G85X248.139Y-115.361
G05
X248.468Y-96.351G85X249.167Y-96.389
G05
X249.495Y-77.379G85X250.194Y-77.417
G05
X253.052Y-104.164G85X253.751Y-104.195
G05
X254.08Y-85.191G85X254.779Y-85.223
G05
X254.638Y-131.407G85X255.318Y-131.574
G05
X255.107Y-66.219G85X255.806Y-66.251
G05
X261.886Y-107.479G85X262.585Y-107.511
G05
X262.913Y-88.507G85X263.613Y-88.539
G05
X263.941Y-69.535G85X264.64Y-69.567
G05
X264.667Y-134.728G85X265.325Y-134.968
G05
X265.342Y-147.201G85X265.997Y-147.447
G05
X266.259Y-119.18G85X266.958Y-119.218
G05
X267.287Y-100.208G85X267.986Y-100.246
G05
X268.314Y-81.236G85X269.013Y-81.273
G05
X271.871Y-108.02G85X272.57Y-108.052
G05
X272.899Y-89.048G85X273.598Y-89.08
G05
X273.926Y-70.076G85X274.625Y-70.108
G05
X274.034Y-138.23G85X274.692Y-138.47
G05
T2
X182.739Y-90.192G85X183.334Y-90.119
G05
X185.07Y-109.142G85X185.665Y-109.069
G05
X187.4Y-128.092G85X187.996Y-128.019
G05
X192.863Y-88.949G85X193.458Y-88.876
G05
X195.193Y-107.899G85X195.789Y-107.826
G05
X197.524Y-126.849G85X198.12Y-126.776
G05
X202.435Y-78.059G85X203.033Y-78.014
G05
X203.859Y-97.045G85X204.458Y-97.0
G05
X205.297Y-115.986G85X205.895Y-115.941
G05
X212.606Y-77.294G85X213.204Y-77.249
G05
X214.031Y-96.28G85X214.629Y-96.235
G05
X215.468Y-115.221G85X216.067Y-115.176
G05
X223.647Y-70.588G85X224.247Y-70.585
G05
X223.751Y-89.639G85X224.351Y-89.636
G05
X223.855Y-108.691G85X224.455Y-108.688
G05
X233.847Y-70.534G85X234.447Y-70.531
G05
X233.951Y-89.586G85X234.551Y-89.583
G05
X234.055Y-108.638G85X234.655Y-108.635
G05
X242.506Y-113.053G85X243.105Y-113.086
G05
X242.566Y-138.079G85X243.147Y-138.227
G05
X243.534Y-94.081G85X244.133Y-94.113
G05
X244.561Y-75.109G85X245.16Y-75.141
G05
X252.45Y-140.599G85X253.031Y-140.747
G05
X252.691Y-113.605G85X253.29Y-113.637
G05
X253.719Y-94.633G85X254.318Y-94.665
G05
X254.746Y-75.66G85X255.345Y-75.693
G05
X261.312Y-143.56G85X261.874Y-143.77
G05
X261.325Y-116.91G85X261.924Y-116.942
G05
X262.352Y-97.938G85X262.952Y-97.97
G05
X263.38Y-78.965G85X263.979Y-78.998
G05
X270.866Y-147.132G85X271.428Y-147.342
G05
X271.51Y-117.461G85X272.109Y-117.494
G05
X272.538Y-98.489G85X273.137Y-98.522
G05
X273.565Y-79.517G85X274.164Y-79.55
G05
T0
M30
