G04 #@! TF.GenerationSoftware,KiCad,Pcbnew,5.1.10*
G04 #@! TF.CreationDate,2021-12-06T09:03:55-06:00*
G04 #@! TF.ProjectId,a_quax_quax,615f7175-6178-45f7-9175-61782e6b6963,VERSION_HERE*
G04 #@! TF.SameCoordinates,Original*
G04 #@! TF.FileFunction,Soldermask,Top*
G04 #@! TF.FilePolarity,Negative*
%FSLAX46Y46*%
G04 Gerber Fmt 4.6, Leading zero omitted, Abs format (unit mm)*
G04 Created by KiCad (PCBNEW 5.1.10) date 2021-12-06 09:03:55*
%MOMM*%
%LPD*%
G01*
G04 APERTURE LIST*
%ADD10O,2.300000X1.700000*%
%ADD11C,5.000000*%
%ADD12C,1.900000*%
%ADD13O,2.300000X1.600000*%
%ADD14C,1.800000*%
%ADD15C,0.100000*%
%ADD16C,1.624000*%
%ADD17C,0.900000*%
%ADD18C,1.000000*%
G04 APERTURE END LIST*
D10*
G04 #@! TO.C,S6*
X195570774Y-84304723D03*
X185370774Y-84304723D03*
D11*
X190470774Y-80404723D03*
D12*
X184970774Y-80404723D03*
X195970774Y-80404723D03*
D13*
X190470774Y-86304723D03*
D14*
X195550774Y-80404723D03*
X185390774Y-80404723D03*
G04 #@! TD*
D10*
G04 #@! TO.C,S4*
X195574637Y-103397278D03*
X185374637Y-103397278D03*
D11*
X190474637Y-99497278D03*
D12*
X184974637Y-99497278D03*
X195974637Y-99497278D03*
D13*
X190474637Y-105397278D03*
D14*
X195554637Y-99497278D03*
X185394637Y-99497278D03*
G04 #@! TD*
G04 #@! TO.C,S16*
G36*
G01*
X235130954Y-89844926D02*
X235130954Y-89844926D01*
G75*
G02*
X236074319Y-89099901I844195J-99170D01*
G01*
X236670221Y-89169903D01*
G75*
G02*
X237415246Y-90113268I-99170J-844195D01*
G01*
X237415246Y-90113268D01*
G75*
G02*
X236471881Y-90858293I-844195J99170D01*
G01*
X235875979Y-90788291D01*
G75*
G02*
X235130954Y-89844926I99170J844195D01*
G01*
G37*
G36*
G01*
X225000614Y-88654885D02*
X225000614Y-88654885D01*
G75*
G02*
X225943979Y-87909860I844195J-99170D01*
G01*
X226539881Y-87979862D01*
G75*
G02*
X227284906Y-88923227I-99170J-844195D01*
G01*
X227284906Y-88923227D01*
G75*
G02*
X226341541Y-89668252I-844195J99170D01*
G01*
X225745639Y-89598250D01*
G75*
G02*
X225000614Y-88654885I99170J844195D01*
G01*
G37*
D11*
X231662946Y-85510711D03*
D12*
X226200507Y-84869022D03*
X237125385Y-86152400D03*
G36*
G01*
X229832442Y-91236246D02*
X229832442Y-91236246D01*
G75*
G02*
X230720316Y-90535046I794537J-93337D01*
G01*
X231415536Y-90616716D01*
G75*
G02*
X232116736Y-91504590I-93337J-794537D01*
G01*
X232116736Y-91504590D01*
G75*
G02*
X231228862Y-92205790I-794537J93337D01*
G01*
X230533642Y-92124120D01*
G75*
G02*
X229832442Y-91236246I93337J794537D01*
G01*
G37*
D14*
X236708253Y-86103398D03*
X226617639Y-84918024D03*
G04 #@! TD*
G04 #@! TO.C,S34*
G36*
G01*
X264252416Y-151093956D02*
X264252416Y-151093956D01*
G75*
G02*
X265398861Y-150732483I753959J-392486D01*
G01*
X265931067Y-151009533D01*
G75*
G02*
X266292540Y-152155978I-392486J-753959D01*
G01*
X266292540Y-152155978D01*
G75*
G02*
X265146095Y-152517451I-753959J392486D01*
G01*
X264613889Y-152240401D01*
G75*
G02*
X264252416Y-151093956I392486J753959D01*
G01*
G37*
G36*
G01*
X255204905Y-146384120D02*
X255204905Y-146384120D01*
G75*
G02*
X256351350Y-146022647I753959J-392486D01*
G01*
X256883556Y-146299697D01*
G75*
G02*
X257245029Y-147446142I-392486J-753959D01*
G01*
X257245029Y-147446142D01*
G75*
G02*
X256098584Y-147807615I-753959J392486D01*
G01*
X255566378Y-147530565D01*
G75*
G02*
X255204905Y-146384120I392486J753959D01*
G01*
G37*
D11*
X262549542Y-145810707D03*
D12*
X257670982Y-143271090D03*
X267428102Y-148350324D03*
G36*
G01*
X258805162Y-150513060D02*
X258805162Y-150513060D01*
G75*
G02*
X259884170Y-150172850I709609J-369399D01*
G01*
X260505078Y-150496074D01*
G75*
G02*
X260845288Y-151575082I-369399J-709609D01*
G01*
X260845288Y-151575082D01*
G75*
G02*
X259766280Y-151915292I-709609J369399D01*
G01*
X259145372Y-151592068D01*
G75*
G02*
X258805162Y-150513060I369399J709609D01*
G01*
G37*
D14*
X267055557Y-148156390D03*
X258043527Y-143465024D03*
G04 #@! TD*
G04 #@! TO.C,S28*
G36*
G01*
X272352130Y-103334339D02*
X272352130Y-103334339D01*
G75*
G02*
X273338020Y-102646573I836828J-149062D01*
G01*
X273928722Y-102751793D01*
G75*
G02*
X274616488Y-103737683I-149062J-836828D01*
G01*
X274616488Y-103737683D01*
G75*
G02*
X273630598Y-104425449I-836828J149062D01*
G01*
X273039896Y-104320229D01*
G75*
G02*
X272352130Y-103334339I149062J836828D01*
G01*
G37*
G36*
G01*
X262310198Y-101545598D02*
X262310198Y-101545598D01*
G75*
G02*
X263296088Y-100857832I836828J-149062D01*
G01*
X263886790Y-100963052D01*
G75*
G02*
X264574556Y-101948942I-149062J-836828D01*
G01*
X264574556Y-101948942D01*
G75*
G02*
X263588666Y-102636708I-836828J149062D01*
G01*
X262997964Y-102531488D01*
G75*
G02*
X262310198Y-101545598I149062J836828D01*
G01*
G37*
D11*
X269147273Y-98802078D03*
D12*
X263732506Y-97837561D03*
X274562040Y-99766595D03*
G36*
G01*
X266980430Y-104408976D02*
X266980430Y-104408976D01*
G75*
G02*
X267908326Y-103761666I787603J-140293D01*
G01*
X268597478Y-103884422D01*
G75*
G02*
X269244788Y-104812318I-140293J-787603D01*
G01*
X269244788Y-104812318D01*
G75*
G02*
X268316892Y-105459628I-787603J140293D01*
G01*
X267627740Y-105336872D01*
G75*
G02*
X266980430Y-104408976I140293J787603D01*
G01*
G37*
D14*
X274148549Y-99692941D03*
X264145997Y-97911215D03*
G04 #@! TD*
G04 #@! TO.C,S32*
G36*
G01*
X246508912Y-142623102D02*
X246508912Y-142623102D01*
G75*
G02*
X247609614Y-142139928I791938J-308764D01*
G01*
X248168628Y-142357878D01*
G75*
G02*
X248651802Y-143458580I-308764J-791938D01*
G01*
X248651802Y-143458580D01*
G75*
G02*
X247551100Y-143941754I-791938J308764D01*
G01*
X246992086Y-143723804D01*
G75*
G02*
X246508912Y-142623102I308764J791938D01*
G01*
G37*
G36*
G01*
X237005662Y-138917940D02*
X237005662Y-138917940D01*
G75*
G02*
X238106364Y-138434766I791938J-308764D01*
G01*
X238665378Y-138652716D01*
G75*
G02*
X239148552Y-139753418I-308764J-791938D01*
G01*
X239148552Y-139753418D01*
G75*
G02*
X238047850Y-140236592I-791938J308764D01*
G01*
X237488836Y-140018642D01*
G75*
G02*
X237005662Y-138917940I308764J791938D01*
G01*
G37*
D11*
X244245412Y-137554664D03*
D12*
X239121110Y-135556782D03*
X249369714Y-139552546D03*
G36*
G01*
X241030785Y-142633903D02*
X241030785Y-142633903D01*
G75*
G02*
X242066739Y-142179151I745353J-290601D01*
G01*
X242718923Y-142433427D01*
G75*
G02*
X243173675Y-143469381I-290601J-745353D01*
G01*
X243173675Y-143469381D01*
G75*
G02*
X242137721Y-143924133I-745353J290601D01*
G01*
X241485537Y-143669857D01*
G75*
G02*
X241030785Y-142633903I290601J745353D01*
G01*
G37*
D14*
X248978403Y-139399980D03*
X239512421Y-135709348D03*
G04 #@! TD*
G04 #@! TO.C,S24*
G36*
G01*
X257475430Y-78507351D02*
X257475430Y-78507351D01*
G75*
G02*
X258461320Y-77819585I836828J-149062D01*
G01*
X259052022Y-77924805D01*
G75*
G02*
X259739788Y-78910695I-149062J-836828D01*
G01*
X259739788Y-78910695D01*
G75*
G02*
X258753898Y-79598461I-836828J149062D01*
G01*
X258163196Y-79493241D01*
G75*
G02*
X257475430Y-78507351I149062J836828D01*
G01*
G37*
G36*
G01*
X247433498Y-76718610D02*
X247433498Y-76718610D01*
G75*
G02*
X248419388Y-76030844I836828J-149062D01*
G01*
X249010090Y-76136064D01*
G75*
G02*
X249697856Y-77121954I-149062J-836828D01*
G01*
X249697856Y-77121954D01*
G75*
G02*
X248711966Y-77809720I-836828J149062D01*
G01*
X248121264Y-77704500D01*
G75*
G02*
X247433498Y-76718610I149062J836828D01*
G01*
G37*
D11*
X254270573Y-73975090D03*
D12*
X248855806Y-73010573D03*
X259685340Y-74939607D03*
G36*
G01*
X252103730Y-79581988D02*
X252103730Y-79581988D01*
G75*
G02*
X253031626Y-78934678I787603J-140293D01*
G01*
X253720778Y-79057434D01*
G75*
G02*
X254368088Y-79985330I-140293J-787603D01*
G01*
X254368088Y-79985330D01*
G75*
G02*
X253440192Y-80632640I-787603J140293D01*
G01*
X252751040Y-80509884D01*
G75*
G02*
X252103730Y-79581988I140293J787603D01*
G01*
G37*
D14*
X259271849Y-74865953D03*
X249269297Y-73084227D03*
G04 #@! TD*
G04 #@! TO.C,S18*
G36*
G01*
X237349717Y-70922593D02*
X237349717Y-70922593D01*
G75*
G02*
X238293082Y-70177568I844195J-99170D01*
G01*
X238888984Y-70247570D01*
G75*
G02*
X239634009Y-71190935I-99170J-844195D01*
G01*
X239634009Y-71190935D01*
G75*
G02*
X238690644Y-71935960I-844195J99170D01*
G01*
X238094742Y-71865958D01*
G75*
G02*
X237349717Y-70922593I99170J844195D01*
G01*
G37*
G36*
G01*
X227219377Y-69732552D02*
X227219377Y-69732552D01*
G75*
G02*
X228162742Y-68987527I844195J-99170D01*
G01*
X228758644Y-69057529D01*
G75*
G02*
X229503669Y-70000894I-99170J-844195D01*
G01*
X229503669Y-70000894D01*
G75*
G02*
X228560304Y-70745919I-844195J99170D01*
G01*
X227964402Y-70675917D01*
G75*
G02*
X227219377Y-69732552I99170J844195D01*
G01*
G37*
D11*
X233881709Y-66588378D03*
D12*
X228419270Y-65946689D03*
X239344148Y-67230067D03*
G36*
G01*
X232051205Y-72313913D02*
X232051205Y-72313913D01*
G75*
G02*
X232939079Y-71612713I794537J-93337D01*
G01*
X233634299Y-71694383D01*
G75*
G02*
X234335499Y-72582257I-93337J-794537D01*
G01*
X234335499Y-72582257D01*
G75*
G02*
X233447625Y-73283457I-794537J93337D01*
G01*
X232752405Y-73201787D01*
G75*
G02*
X232051205Y-72313913I93337J794537D01*
G01*
G37*
D14*
X238927016Y-67181065D03*
X228836402Y-65995691D03*
G04 #@! TD*
G04 #@! TO.C,S26*
G36*
G01*
X269020215Y-122039894D02*
X269020215Y-122039894D01*
G75*
G02*
X270006105Y-121352128I836828J-149062D01*
G01*
X270596807Y-121457348D01*
G75*
G02*
X271284573Y-122443238I-149062J-836828D01*
G01*
X271284573Y-122443238D01*
G75*
G02*
X270298683Y-123131004I-836828J149062D01*
G01*
X269707981Y-123025784D01*
G75*
G02*
X269020215Y-122039894I149062J836828D01*
G01*
G37*
G36*
G01*
X258978283Y-120251153D02*
X258978283Y-120251153D01*
G75*
G02*
X259964173Y-119563387I836828J-149062D01*
G01*
X260554875Y-119668607D01*
G75*
G02*
X261242641Y-120654497I-149062J-836828D01*
G01*
X261242641Y-120654497D01*
G75*
G02*
X260256751Y-121342263I-836828J149062D01*
G01*
X259666049Y-121237043D01*
G75*
G02*
X258978283Y-120251153I149062J836828D01*
G01*
G37*
D11*
X265815358Y-117507633D03*
D12*
X260400591Y-116543116D03*
X271230125Y-118472150D03*
G36*
G01*
X263648515Y-123114531D02*
X263648515Y-123114531D01*
G75*
G02*
X264576411Y-122467221I787603J-140293D01*
G01*
X265265563Y-122589977D01*
G75*
G02*
X265912873Y-123517873I-140293J-787603D01*
G01*
X265912873Y-123517873D01*
G75*
G02*
X264984977Y-124165183I-787603J140293D01*
G01*
X264295825Y-124042427D01*
G75*
G02*
X263648515Y-123114531I140293J787603D01*
G01*
G37*
D14*
X270816634Y-118398496D03*
X260814082Y-116616770D03*
G04 #@! TD*
G04 #@! TO.C,S20*
G36*
G01*
X250811484Y-115918553D02*
X250811484Y-115918553D01*
G75*
G02*
X251797374Y-115230787I836828J-149062D01*
G01*
X252388076Y-115336007D01*
G75*
G02*
X253075842Y-116321897I-149062J-836828D01*
G01*
X253075842Y-116321897D01*
G75*
G02*
X252089952Y-117009663I-836828J149062D01*
G01*
X251499250Y-116904443D01*
G75*
G02*
X250811484Y-115918553I149062J836828D01*
G01*
G37*
G36*
G01*
X240769552Y-114129812D02*
X240769552Y-114129812D01*
G75*
G02*
X241755442Y-113442046I836828J-149062D01*
G01*
X242346144Y-113547266D01*
G75*
G02*
X243033910Y-114533156I-149062J-836828D01*
G01*
X243033910Y-114533156D01*
G75*
G02*
X242048020Y-115220922I-836828J149062D01*
G01*
X241457318Y-115115702D01*
G75*
G02*
X240769552Y-114129812I149062J836828D01*
G01*
G37*
D11*
X247606627Y-111386292D03*
D12*
X242191860Y-110421775D03*
X253021394Y-112350809D03*
G36*
G01*
X245439784Y-116993190D02*
X245439784Y-116993190D01*
G75*
G02*
X246367680Y-116345880I787603J-140293D01*
G01*
X247056832Y-116468636D01*
G75*
G02*
X247704142Y-117396532I-140293J-787603D01*
G01*
X247704142Y-117396532D01*
G75*
G02*
X246776246Y-118043842I-787603J140293D01*
G01*
X246087094Y-117921086D01*
G75*
G02*
X245439784Y-116993190I140293J787603D01*
G01*
G37*
D14*
X252607903Y-112277155D03*
X242605351Y-110495429D03*
G04 #@! TD*
G04 #@! TO.C,S22*
G36*
G01*
X254143505Y-97213008D02*
X254143505Y-97213008D01*
G75*
G02*
X255129395Y-96525242I836828J-149062D01*
G01*
X255720097Y-96630462D01*
G75*
G02*
X256407863Y-97616352I-149062J-836828D01*
G01*
X256407863Y-97616352D01*
G75*
G02*
X255421973Y-98304118I-836828J149062D01*
G01*
X254831271Y-98198898D01*
G75*
G02*
X254143505Y-97213008I149062J836828D01*
G01*
G37*
G36*
G01*
X244101573Y-95424267D02*
X244101573Y-95424267D01*
G75*
G02*
X245087463Y-94736501I836828J-149062D01*
G01*
X245678165Y-94841721D01*
G75*
G02*
X246365931Y-95827611I-149062J-836828D01*
G01*
X246365931Y-95827611D01*
G75*
G02*
X245380041Y-96515377I-836828J149062D01*
G01*
X244789339Y-96410157D01*
G75*
G02*
X244101573Y-95424267I149062J836828D01*
G01*
G37*
D11*
X250938648Y-92680747D03*
D12*
X245523881Y-91716230D03*
X256353415Y-93645264D03*
G36*
G01*
X248771805Y-98287645D02*
X248771805Y-98287645D01*
G75*
G02*
X249699701Y-97640335I787603J-140293D01*
G01*
X250388853Y-97763091D01*
G75*
G02*
X251036163Y-98690987I-140293J-787603D01*
G01*
X251036163Y-98690987D01*
G75*
G02*
X250108267Y-99338297I-787603J140293D01*
G01*
X249419115Y-99215541D01*
G75*
G02*
X248771805Y-98287645I140293J787603D01*
G01*
G37*
D14*
X255939924Y-93571610D03*
X245937372Y-91789884D03*
G04 #@! TD*
G04 #@! TO.C,S30*
G36*
G01*
X275684151Y-84628794D02*
X275684151Y-84628794D01*
G75*
G02*
X276670041Y-83941028I836828J-149062D01*
G01*
X277260743Y-84046248D01*
G75*
G02*
X277948509Y-85032138I-149062J-836828D01*
G01*
X277948509Y-85032138D01*
G75*
G02*
X276962619Y-85719904I-836828J149062D01*
G01*
X276371917Y-85614684D01*
G75*
G02*
X275684151Y-84628794I149062J836828D01*
G01*
G37*
G36*
G01*
X265642219Y-82840053D02*
X265642219Y-82840053D01*
G75*
G02*
X266628109Y-82152287I836828J-149062D01*
G01*
X267218811Y-82257507D01*
G75*
G02*
X267906577Y-83243397I-149062J-836828D01*
G01*
X267906577Y-83243397D01*
G75*
G02*
X266920687Y-83931163I-836828J149062D01*
G01*
X266329985Y-83825943D01*
G75*
G02*
X265642219Y-82840053I149062J836828D01*
G01*
G37*
D11*
X272479294Y-80096533D03*
D12*
X267064527Y-79132016D03*
X277894061Y-81061050D03*
G36*
G01*
X270312451Y-85703431D02*
X270312451Y-85703431D01*
G75*
G02*
X271240347Y-85056121I787603J-140293D01*
G01*
X271929499Y-85178877D01*
G75*
G02*
X272576809Y-86106773I-140293J-787603D01*
G01*
X272576809Y-86106773D01*
G75*
G02*
X271648913Y-86754083I-787603J140293D01*
G01*
X270959761Y-86631327D01*
G75*
G02*
X270312451Y-85703431I140293J787603D01*
G01*
G37*
D14*
X277480570Y-80987396D03*
X267478018Y-79205670D03*
G04 #@! TD*
G04 #@! TO.C,S10*
G36*
G01*
X214538279Y-94120204D02*
X214538279Y-94120204D01*
G75*
G02*
X215427375Y-93311188I849056J-40040D01*
G01*
X216026709Y-93339452D01*
G75*
G02*
X216835725Y-94228548I-40040J-849056D01*
G01*
X216835725Y-94228548D01*
G75*
G02*
X215946629Y-95037564I-849056J40040D01*
G01*
X215347295Y-95009300D01*
G75*
G02*
X214538279Y-94120204I40040J849056D01*
G01*
G37*
G36*
G01*
X204349602Y-93639719D02*
X204349602Y-93639719D01*
G75*
G02*
X205238698Y-92830703I849056J-40040D01*
G01*
X205838032Y-92858967D01*
G75*
G02*
X206647048Y-93748063I-40040J-849056D01*
G01*
X206647048Y-93748063D01*
G75*
G02*
X205757952Y-94557079I-849056J40040D01*
G01*
X205158618Y-94528815D01*
G75*
G02*
X204349602Y-93639719I40040J849056D01*
G01*
G37*
D11*
X210776379Y-90038463D03*
D12*
X205282485Y-89779378D03*
X216270273Y-90297548D03*
G36*
G01*
X209349728Y-95877741D02*
X209349728Y-95877741D01*
G75*
G02*
X210186525Y-95116314I799112J-37685D01*
G01*
X210885747Y-95149288D01*
G75*
G02*
X211647174Y-95986085I-37685J-799112D01*
G01*
X211647174Y-95986085D01*
G75*
G02*
X210810377Y-96747512I-799112J37685D01*
G01*
X210111155Y-96714538D01*
G75*
G02*
X209349728Y-95877741I37685J799112D01*
G01*
G37*
D14*
X215850740Y-90277764D03*
X205702018Y-89799162D03*
G04 #@! TD*
G04 #@! TO.C,S14*
G36*
G01*
X232912198Y-108767257D02*
X232912198Y-108767257D01*
G75*
G02*
X233855563Y-108022232I844195J-99170D01*
G01*
X234451465Y-108092234D01*
G75*
G02*
X235196490Y-109035599I-99170J-844195D01*
G01*
X235196490Y-109035599D01*
G75*
G02*
X234253125Y-109780624I-844195J99170D01*
G01*
X233657223Y-109710622D01*
G75*
G02*
X232912198Y-108767257I99170J844195D01*
G01*
G37*
G36*
G01*
X222781858Y-107577216D02*
X222781858Y-107577216D01*
G75*
G02*
X223725223Y-106832191I844195J-99170D01*
G01*
X224321125Y-106902193D01*
G75*
G02*
X225066150Y-107845558I-99170J-844195D01*
G01*
X225066150Y-107845558D01*
G75*
G02*
X224122785Y-108590583I-844195J99170D01*
G01*
X223526883Y-108520581D01*
G75*
G02*
X222781858Y-107577216I99170J844195D01*
G01*
G37*
D11*
X229444190Y-104433042D03*
D12*
X223981751Y-103791353D03*
X234906629Y-105074731D03*
G36*
G01*
X227613686Y-110158577D02*
X227613686Y-110158577D01*
G75*
G02*
X228501560Y-109457377I794537J-93337D01*
G01*
X229196780Y-109539047D01*
G75*
G02*
X229897980Y-110426921I-93337J-794537D01*
G01*
X229897980Y-110426921D01*
G75*
G02*
X229010106Y-111128121I-794537J93337D01*
G01*
X228314886Y-111046451D01*
G75*
G02*
X227613686Y-110158577I93337J794537D01*
G01*
G37*
D14*
X234489497Y-105025729D03*
X224398883Y-103840355D03*
G04 #@! TD*
G04 #@! TO.C,S12*
G36*
G01*
X215437910Y-75102341D02*
X215437910Y-75102341D01*
G75*
G02*
X216327006Y-74293325I849056J-40040D01*
G01*
X216926340Y-74321589D01*
G75*
G02*
X217735356Y-75210685I-40040J-849056D01*
G01*
X217735356Y-75210685D01*
G75*
G02*
X216846260Y-76019701I-849056J40040D01*
G01*
X216246926Y-75991437D01*
G75*
G02*
X215437910Y-75102341I40040J849056D01*
G01*
G37*
G36*
G01*
X205249233Y-74621856D02*
X205249233Y-74621856D01*
G75*
G02*
X206138329Y-73812840I849056J-40040D01*
G01*
X206737663Y-73841104D01*
G75*
G02*
X207546679Y-74730200I-40040J-849056D01*
G01*
X207546679Y-74730200D01*
G75*
G02*
X206657583Y-75539216I-849056J40040D01*
G01*
X206058249Y-75510952D01*
G75*
G02*
X205249233Y-74621856I40040J849056D01*
G01*
G37*
D11*
X211676010Y-71020600D03*
D12*
X206182116Y-70761515D03*
X217169904Y-71279685D03*
G36*
G01*
X210249359Y-76859878D02*
X210249359Y-76859878D01*
G75*
G02*
X211086156Y-76098451I799112J-37685D01*
G01*
X211785378Y-76131425D01*
G75*
G02*
X212546805Y-76968222I-37685J-799112D01*
G01*
X212546805Y-76968222D01*
G75*
G02*
X211710008Y-77729649I-799112J37685D01*
G01*
X211010786Y-77696675D01*
G75*
G02*
X210249359Y-76859878I37685J799112D01*
G01*
G37*
D14*
X216750371Y-71259901D03*
X206601649Y-70781299D03*
G04 #@! TD*
D10*
G04 #@! TO.C,S2*
X195578498Y-122489826D03*
X185378498Y-122489826D03*
D11*
X190478498Y-118589826D03*
D12*
X184978498Y-118589826D03*
X195978498Y-118589826D03*
D13*
X190478498Y-124489826D03*
D14*
X195558498Y-118589826D03*
X185398498Y-118589826D03*
G04 #@! TD*
G04 #@! TO.C,S8*
G36*
G01*
X213656947Y-113095707D02*
X213656947Y-113095707D01*
G75*
G02*
X214546043Y-112286691I849056J-40040D01*
G01*
X215145377Y-112314955D01*
G75*
G02*
X215954393Y-113204051I-40040J-849056D01*
G01*
X215954393Y-113204051D01*
G75*
G02*
X215065297Y-114013067I-849056J40040D01*
G01*
X214465963Y-113984803D01*
G75*
G02*
X213656947Y-113095707I40040J849056D01*
G01*
G37*
G36*
G01*
X203468270Y-112615222D02*
X203468270Y-112615222D01*
G75*
G02*
X204357366Y-111806206I849056J-40040D01*
G01*
X204956700Y-111834470D01*
G75*
G02*
X205765716Y-112723566I-40040J-849056D01*
G01*
X205765716Y-112723566D01*
G75*
G02*
X204876620Y-113532582I-849056J40040D01*
G01*
X204277286Y-113504318D01*
G75*
G02*
X203468270Y-112615222I40040J849056D01*
G01*
G37*
D11*
X209895047Y-109013966D03*
D12*
X204401153Y-108754881D03*
X215388941Y-109273051D03*
G36*
G01*
X208468396Y-114853244D02*
X208468396Y-114853244D01*
G75*
G02*
X209305193Y-114091817I799112J-37685D01*
G01*
X210004415Y-114124791D01*
G75*
G02*
X210765842Y-114961588I-37685J-799112D01*
G01*
X210765842Y-114961588D01*
G75*
G02*
X209929045Y-115723015I-799112J37685D01*
G01*
X209229823Y-115690041D01*
G75*
G02*
X208468396Y-114853244I37685J799112D01*
G01*
G37*
D14*
X214969408Y-109253267D03*
X204820686Y-108774665D03*
G04 #@! TD*
D15*
G04 #@! TO.C,C1*
G36*
X198463638Y-142824141D02*
G01*
X197363644Y-142820301D01*
X197367484Y-141720307D01*
X198467478Y-141724147D01*
X198463638Y-142824141D01*
G37*
G36*
X198503292Y-131464210D02*
G01*
X197403298Y-131460370D01*
X197407138Y-130360376D01*
X198507132Y-130364216D01*
X198503292Y-131464210D01*
G37*
G36*
X185768148Y-141509817D02*
G01*
X184668154Y-141505977D01*
X184671994Y-140405983D01*
X185771988Y-140409823D01*
X185768148Y-141509817D01*
G37*
G36*
X211198781Y-132778533D02*
G01*
X210098787Y-132774693D01*
X210102627Y-131674699D01*
X211202621Y-131678539D01*
X211198781Y-132778533D01*
G37*
G36*
X213703545Y-142877338D02*
G01*
X212603551Y-142873498D01*
X212607391Y-141773504D01*
X213707385Y-141777344D01*
X213703545Y-142877338D01*
G37*
G36*
X201003623Y-142833007D02*
G01*
X199903629Y-142829167D01*
X199907469Y-141729173D01*
X201007463Y-141733013D01*
X201003623Y-142833007D01*
G37*
G36*
X193388102Y-141536416D02*
G01*
X192288108Y-141532576D01*
X192291948Y-140432582D01*
X193391942Y-140436422D01*
X193388102Y-141536416D01*
G37*
G36*
X193423323Y-131446477D02*
G01*
X192323329Y-131442637D01*
X192327169Y-130342643D01*
X193427163Y-130346483D01*
X193423323Y-131446477D01*
G37*
G36*
X206123245Y-131490809D02*
G01*
X205023251Y-131486969D01*
X205027091Y-130386975D01*
X206127085Y-130390815D01*
X206123245Y-131490809D01*
G37*
G36*
X213743199Y-131517407D02*
G01*
X212643205Y-131513567D01*
X212647045Y-130413573D01*
X213747039Y-130417413D01*
X213743199Y-131517407D01*
G37*
G36*
X195958874Y-132725336D02*
G01*
X194858880Y-132721496D01*
X194862720Y-131621502D01*
X195962714Y-131625342D01*
X195958874Y-132725336D01*
G37*
G36*
X211167994Y-141598480D02*
G01*
X210068000Y-141594640D01*
X210071840Y-140494646D01*
X211171834Y-140498486D01*
X211167994Y-141598480D01*
G37*
G36*
X195963307Y-131455344D02*
G01*
X194863313Y-131451504D01*
X194867153Y-130351510D01*
X195967147Y-130355350D01*
X195963307Y-131455344D01*
G37*
G36*
X193383669Y-142806408D02*
G01*
X192283675Y-142802568D01*
X192287515Y-141702574D01*
X193387509Y-141706414D01*
X193383669Y-142806408D01*
G37*
G36*
X190843684Y-142797542D02*
G01*
X189743690Y-142793702D01*
X189747530Y-141693708D01*
X190847524Y-141697548D01*
X190843684Y-142797542D01*
G37*
G36*
X188343354Y-131428745D02*
G01*
X187243360Y-131424905D01*
X187247200Y-130324911D01*
X188347194Y-130328751D01*
X188343354Y-131428745D01*
G37*
G36*
X188308133Y-141518683D02*
G01*
X187208139Y-141514843D01*
X187211979Y-140414849D01*
X188311973Y-140418689D01*
X188308133Y-141518683D01*
G37*
G36*
X190883338Y-131437611D02*
G01*
X189783344Y-131433771D01*
X189787184Y-130333777D01*
X190887178Y-130337617D01*
X190883338Y-131437611D01*
G37*
G36*
X201043276Y-131473076D02*
G01*
X199943282Y-131469236D01*
X199947122Y-130369242D01*
X201047116Y-130373082D01*
X201043276Y-131473076D01*
G37*
G36*
X208663230Y-131499675D02*
G01*
X207563236Y-131495835D01*
X207567076Y-130395841D01*
X208667070Y-130399681D01*
X208663230Y-131499675D01*
G37*
G36*
X201008056Y-141563015D02*
G01*
X199908062Y-141559175D01*
X199911902Y-140459181D01*
X201011896Y-140463021D01*
X201008056Y-141563015D01*
G37*
G36*
X193418890Y-132716470D02*
G01*
X192318896Y-132712630D01*
X192322736Y-131612636D01*
X193422730Y-131616476D01*
X193418890Y-132716470D01*
G37*
G36*
X208623576Y-142859606D02*
G01*
X207523582Y-142855766D01*
X207527422Y-141755772D01*
X208627416Y-141759612D01*
X208623576Y-142859606D01*
G37*
G36*
X213738766Y-132787400D02*
G01*
X212638772Y-132783560D01*
X212642612Y-131683566D01*
X213742606Y-131687406D01*
X213738766Y-132787400D01*
G37*
G36*
X198498859Y-132734202D02*
G01*
X197398865Y-132730362D01*
X197402705Y-131630368D01*
X198502699Y-131634208D01*
X198498859Y-132734202D01*
G37*
G36*
X203578828Y-132751935D02*
G01*
X202478834Y-132748095D01*
X202482674Y-131648101D01*
X203582668Y-131651941D01*
X203578828Y-132751935D01*
G37*
G36*
X203583261Y-131481942D02*
G01*
X202483267Y-131478102D01*
X202487107Y-130378108D01*
X203587101Y-130381948D01*
X203583261Y-131481942D01*
G37*
G36*
X208628009Y-141589613D02*
G01*
X207528015Y-141585773D01*
X207531855Y-140485779D01*
X208631849Y-140489619D01*
X208628009Y-141589613D01*
G37*
G36*
X185803369Y-131419879D02*
G01*
X184703375Y-131416039D01*
X184707215Y-130316045D01*
X185807209Y-130319885D01*
X185803369Y-131419879D01*
G37*
G36*
X206118812Y-132760801D02*
G01*
X205018818Y-132756961D01*
X205022658Y-131656967D01*
X206122652Y-131660807D01*
X206118812Y-132760801D01*
G37*
G36*
X201038843Y-132743068D02*
G01*
X199938849Y-132739228D01*
X199942689Y-131639234D01*
X201042683Y-131643074D01*
X201038843Y-132743068D01*
G37*
G36*
X185798936Y-132689871D02*
G01*
X184698942Y-132686031D01*
X184702782Y-131586037D01*
X185802776Y-131589877D01*
X185798936Y-132689871D01*
G37*
G36*
X213707978Y-141607346D02*
G01*
X212607984Y-141603506D01*
X212611824Y-140503512D01*
X213711818Y-140507352D01*
X213707978Y-141607346D01*
G37*
G36*
X195923653Y-142815274D02*
G01*
X194823659Y-142811434D01*
X194827499Y-141711440D01*
X195927493Y-141715280D01*
X195923653Y-142815274D01*
G37*
G36*
X190878905Y-132707603D02*
G01*
X189778911Y-132703763D01*
X189782751Y-131603769D01*
X190882745Y-131607609D01*
X190878905Y-132707603D01*
G37*
G36*
X208658797Y-132769667D02*
G01*
X207558803Y-132765827D01*
X207562643Y-131665833D01*
X208662637Y-131669673D01*
X208658797Y-132769667D01*
G37*
G36*
X206088025Y-141580747D02*
G01*
X204988031Y-141576907D01*
X204991871Y-140476913D01*
X206091865Y-140480753D01*
X206088025Y-141580747D01*
G37*
G36*
X188303700Y-142788676D02*
G01*
X187203706Y-142784836D01*
X187207546Y-141684842D01*
X188307540Y-141688682D01*
X188303700Y-142788676D01*
G37*
G36*
X185763715Y-142779809D02*
G01*
X184663721Y-142775969D01*
X184667561Y-141675975D01*
X185767555Y-141679815D01*
X185763715Y-142779809D01*
G37*
G36*
X198468071Y-141554148D02*
G01*
X197368077Y-141550308D01*
X197371917Y-140450314D01*
X198471911Y-140454154D01*
X198468071Y-141554148D01*
G37*
G36*
X188338921Y-132698737D02*
G01*
X187238927Y-132694897D01*
X187242767Y-131594903D01*
X188342761Y-131598743D01*
X188338921Y-132698737D01*
G37*
G36*
X211163561Y-142868472D02*
G01*
X210063567Y-142864632D01*
X210067407Y-141764638D01*
X211167401Y-141768478D01*
X211163561Y-142868472D01*
G37*
G36*
X203548040Y-141571881D02*
G01*
X202448046Y-141568041D01*
X202451886Y-140468047D01*
X203551880Y-140471887D01*
X203548040Y-141571881D01*
G37*
G36*
X206083592Y-142850739D02*
G01*
X204983598Y-142846899D01*
X204987438Y-141746905D01*
X206087432Y-141750745D01*
X206083592Y-142850739D01*
G37*
G36*
X203543607Y-142841873D02*
G01*
X202443613Y-142838033D01*
X202447453Y-141738039D01*
X203547447Y-141741879D01*
X203543607Y-142841873D01*
G37*
G36*
X190848118Y-141527550D02*
G01*
X189748124Y-141523710D01*
X189751964Y-140423716D01*
X190851958Y-140427556D01*
X190848118Y-141527550D01*
G37*
G36*
X195928087Y-141545282D02*
G01*
X194828093Y-141541442D01*
X194831933Y-140441448D01*
X195931927Y-140445288D01*
X195928087Y-141545282D01*
G37*
G36*
X211203214Y-131508541D02*
G01*
X210103220Y-131504701D01*
X210107060Y-130404707D01*
X211207054Y-130408547D01*
X211203214Y-131508541D01*
G37*
G36*
X201043276Y-131473076D02*
G01*
X199943282Y-131469236D01*
X199947122Y-130369242D01*
X201047116Y-130373082D01*
X201043276Y-131473076D01*
G37*
G36*
X201003623Y-142833007D02*
G01*
X199903629Y-142829167D01*
X199907469Y-141729173D01*
X201007463Y-141733013D01*
X201003623Y-142833007D01*
G37*
G36*
X201038843Y-132743068D02*
G01*
X199938849Y-132739228D01*
X199942689Y-131639234D01*
X201042683Y-131643074D01*
X201038843Y-132743068D01*
G37*
G36*
X201008056Y-141563016D02*
G01*
X199908062Y-141559176D01*
X199911902Y-140459182D01*
X201011896Y-140463022D01*
X201008056Y-141563016D01*
G37*
G36*
X203583261Y-131481942D02*
G01*
X202483267Y-131478102D01*
X202487107Y-130378108D01*
X203587101Y-130381948D01*
X203583261Y-131481942D01*
G37*
G36*
X203543607Y-142841873D02*
G01*
X202443613Y-142838033D01*
X202447453Y-141738039D01*
X203547447Y-141741879D01*
X203543607Y-142841873D01*
G37*
G36*
X203578828Y-132751935D02*
G01*
X202478834Y-132748095D01*
X202482674Y-131648101D01*
X203582668Y-131651941D01*
X203578828Y-132751935D01*
G37*
G36*
X203548040Y-141571881D02*
G01*
X202448046Y-141568041D01*
X202451886Y-140468047D01*
X203551880Y-140471887D01*
X203548040Y-141571881D01*
G37*
G36*
X206123245Y-131490809D02*
G01*
X205023251Y-131486969D01*
X205027091Y-130386975D01*
X206127085Y-130390815D01*
X206123245Y-131490809D01*
G37*
G36*
X206083592Y-142850739D02*
G01*
X204983598Y-142846899D01*
X204987438Y-141746905D01*
X206087432Y-141750745D01*
X206083592Y-142850739D01*
G37*
G36*
X206118812Y-132760801D02*
G01*
X205018818Y-132756961D01*
X205022658Y-131656967D01*
X206122652Y-131660807D01*
X206118812Y-132760801D01*
G37*
G36*
X206088025Y-141580747D02*
G01*
X204988031Y-141576907D01*
X204991871Y-140476913D01*
X206091865Y-140480753D01*
X206088025Y-141580747D01*
G37*
G36*
X208663230Y-131499675D02*
G01*
X207563236Y-131495835D01*
X207567076Y-130395841D01*
X208667070Y-130399681D01*
X208663230Y-131499675D01*
G37*
G36*
X208623576Y-142859606D02*
G01*
X207523582Y-142855766D01*
X207527422Y-141755772D01*
X208627416Y-141759612D01*
X208623576Y-142859606D01*
G37*
G36*
X208658797Y-132769667D02*
G01*
X207558803Y-132765827D01*
X207562643Y-131665833D01*
X208662637Y-131669673D01*
X208658797Y-132769667D01*
G37*
G36*
X208628009Y-141589613D02*
G01*
X207528015Y-141585773D01*
X207531855Y-140485779D01*
X208631849Y-140489619D01*
X208628009Y-141589613D01*
G37*
G36*
X211203214Y-131508541D02*
G01*
X210103220Y-131504701D01*
X210107060Y-130404707D01*
X211207054Y-130408547D01*
X211203214Y-131508541D01*
G37*
G36*
X211163561Y-142868472D02*
G01*
X210063567Y-142864632D01*
X210067407Y-141764638D01*
X211167401Y-141768478D01*
X211163561Y-142868472D01*
G37*
G36*
X211198781Y-132778533D02*
G01*
X210098787Y-132774693D01*
X210102627Y-131674699D01*
X211202621Y-131678539D01*
X211198781Y-132778533D01*
G37*
G36*
X211167994Y-141598480D02*
G01*
X210068000Y-141594640D01*
X210071840Y-140494646D01*
X211171834Y-140498486D01*
X211167994Y-141598480D01*
G37*
G36*
X213743199Y-131517407D02*
G01*
X212643205Y-131513567D01*
X212647045Y-130413573D01*
X213747039Y-130417413D01*
X213743199Y-131517407D01*
G37*
G36*
X213703545Y-142877338D02*
G01*
X212603551Y-142873498D01*
X212607391Y-141773504D01*
X213707385Y-141777344D01*
X213703545Y-142877338D01*
G37*
G36*
X213738766Y-132787400D02*
G01*
X212638772Y-132783560D01*
X212642612Y-131683566D01*
X213742606Y-131687406D01*
X213738766Y-132787400D01*
G37*
G36*
X213707978Y-141607346D02*
G01*
X212607984Y-141603506D01*
X212611824Y-140503512D01*
X213711818Y-140507352D01*
X213707978Y-141607346D01*
G37*
G36*
X198503292Y-131464210D02*
G01*
X197403298Y-131460370D01*
X197407138Y-130360376D01*
X198507132Y-130364216D01*
X198503292Y-131464210D01*
G37*
G36*
X198463638Y-142824141D02*
G01*
X197363644Y-142820301D01*
X197367484Y-141720307D01*
X198467478Y-141724147D01*
X198463638Y-142824141D01*
G37*
G36*
X198498859Y-132734202D02*
G01*
X197398865Y-132730362D01*
X197402705Y-131630368D01*
X198502699Y-131634208D01*
X198498859Y-132734202D01*
G37*
G36*
X198468071Y-141554148D02*
G01*
X197368077Y-141550308D01*
X197371917Y-140450314D01*
X198471911Y-140454154D01*
X198468071Y-141554148D01*
G37*
G36*
X195963307Y-131455344D02*
G01*
X194863313Y-131451504D01*
X194867153Y-130351510D01*
X195967147Y-130355350D01*
X195963307Y-131455344D01*
G37*
G36*
X195923653Y-142815274D02*
G01*
X194823659Y-142811434D01*
X194827499Y-141711440D01*
X195927493Y-141715280D01*
X195923653Y-142815274D01*
G37*
G36*
X195958874Y-132725336D02*
G01*
X194858880Y-132721496D01*
X194862720Y-131621502D01*
X195962714Y-131625342D01*
X195958874Y-132725336D01*
G37*
G36*
X195928087Y-141545282D02*
G01*
X194828093Y-141541442D01*
X194831933Y-140441448D01*
X195931927Y-140445288D01*
X195928087Y-141545282D01*
G37*
G36*
X193423323Y-131446477D02*
G01*
X192323329Y-131442637D01*
X192327169Y-130342643D01*
X193427163Y-130346483D01*
X193423323Y-131446477D01*
G37*
G36*
X193383669Y-142806408D02*
G01*
X192283675Y-142802568D01*
X192287515Y-141702574D01*
X193387509Y-141706414D01*
X193383669Y-142806408D01*
G37*
G36*
X193418890Y-132716470D02*
G01*
X192318896Y-132712630D01*
X192322736Y-131612636D01*
X193422730Y-131616476D01*
X193418890Y-132716470D01*
G37*
G36*
X193388102Y-141536416D02*
G01*
X192288108Y-141532576D01*
X192291948Y-140432582D01*
X193391942Y-140436422D01*
X193388102Y-141536416D01*
G37*
G36*
X190883338Y-131437611D02*
G01*
X189783344Y-131433771D01*
X189787184Y-130333777D01*
X190887178Y-130337617D01*
X190883338Y-131437611D01*
G37*
G36*
X190843684Y-142797542D02*
G01*
X189743690Y-142793702D01*
X189747530Y-141693708D01*
X190847524Y-141697548D01*
X190843684Y-142797542D01*
G37*
G36*
X190878905Y-132707603D02*
G01*
X189778911Y-132703763D01*
X189782751Y-131603769D01*
X190882745Y-131607609D01*
X190878905Y-132707603D01*
G37*
G36*
X190848118Y-141527550D02*
G01*
X189748124Y-141523710D01*
X189751964Y-140423716D01*
X190851958Y-140427556D01*
X190848118Y-141527550D01*
G37*
G36*
X188343354Y-131428745D02*
G01*
X187243360Y-131424905D01*
X187247200Y-130324911D01*
X188347194Y-130328751D01*
X188343354Y-131428745D01*
G37*
G36*
X188303700Y-142788676D02*
G01*
X187203706Y-142784836D01*
X187207546Y-141684842D01*
X188307540Y-141688682D01*
X188303700Y-142788676D01*
G37*
G36*
X188338921Y-132698737D02*
G01*
X187238927Y-132694897D01*
X187242767Y-131594903D01*
X188342761Y-131598743D01*
X188338921Y-132698737D01*
G37*
G36*
X188308133Y-141518683D02*
G01*
X187208139Y-141514843D01*
X187211979Y-140414849D01*
X188311973Y-140418689D01*
X188308133Y-141518683D01*
G37*
G36*
X185798936Y-132689871D02*
G01*
X184698942Y-132686031D01*
X184702782Y-131586037D01*
X185802776Y-131589877D01*
X185798936Y-132689871D01*
G37*
G36*
X185803369Y-131419879D02*
G01*
X184703375Y-131416039D01*
X184707215Y-130316045D01*
X185807209Y-130319885D01*
X185803369Y-131419879D01*
G37*
G36*
X185768148Y-141509817D02*
G01*
X184668154Y-141505977D01*
X184671994Y-140405983D01*
X185771988Y-140409823D01*
X185768148Y-141509817D01*
G37*
G36*
X185763715Y-142779809D02*
G01*
X184663721Y-142775969D01*
X184667561Y-141675975D01*
X185767555Y-141679815D01*
X185763715Y-142779809D01*
G37*
D16*
X185261842Y-128991573D03*
X187801827Y-129000439D03*
X190341811Y-129009306D03*
X192881796Y-129018172D03*
X195421780Y-129027038D03*
X197961765Y-129035904D03*
X200501749Y-129044771D03*
X203041734Y-129053637D03*
X205581718Y-129062503D03*
X208121703Y-129071369D03*
X210661687Y-129080236D03*
X213201672Y-129089102D03*
X213148544Y-144309009D03*
X210608560Y-144300143D03*
X208068575Y-144291277D03*
X205528591Y-144282410D03*
X202988606Y-144273544D03*
X200448621Y-144264678D03*
X197908637Y-144255812D03*
X195368652Y-144246945D03*
X192828668Y-144238079D03*
X190288683Y-144229213D03*
X187748699Y-144220347D03*
X185208714Y-144211480D03*
G04 #@! TD*
D17*
G04 #@! TO.C,RST*
X182881635Y-136763096D03*
G04 #@! TD*
D18*
G04 #@! TO.C,REF\u002A\u002A*
X269006105Y-133977970D03*
X269532205Y-131024460D03*
G04 #@! TD*
G04 #@! TO.C,BAT*
G36*
G01*
X218498428Y-138585305D02*
X218498428Y-138585305D01*
G75*
G02*
X219224692Y-137861571I724999J-1265D01*
G01*
X219224692Y-137861571D01*
G75*
G02*
X219948426Y-138587835I-1265J-724999D01*
G01*
X219948426Y-138587835D01*
G75*
G02*
X219222162Y-139311569I-724999J1265D01*
G01*
X219222162Y-139311569D01*
G75*
G02*
X218498428Y-138585305I1265J724999D01*
G01*
G37*
G36*
G01*
X218500741Y-137260307D02*
X218503097Y-135910309D01*
G75*
G02*
X218553184Y-135860396I50000J-87D01*
G01*
X219903182Y-135862752D01*
G75*
G02*
X219953095Y-135912839I-87J-50000D01*
G01*
X219950739Y-137262837D01*
G75*
G02*
X219900652Y-137312750I-50000J87D01*
G01*
X218550654Y-137310394D01*
G75*
G02*
X218500741Y-137260307I87J50000D01*
G01*
G37*
G04 #@! TD*
G04 #@! TO.C,REF\u002A\u002A*
G36*
G01*
X267833618Y-136511618D02*
X267046015Y-136371325D01*
G75*
G02*
X267005558Y-136313332I8768J49225D01*
G01*
X267180925Y-135328829D01*
G75*
G02*
X267238918Y-135288372I49225J-8768D01*
G01*
X268026521Y-135428665D01*
G75*
G02*
X268066978Y-135486658I-8768J-49225D01*
G01*
X267891611Y-136471161D01*
G75*
G02*
X267833618Y-136511618I-49225J8768D01*
G01*
G37*
G36*
G01*
X269113795Y-129324744D02*
X268326192Y-129184451D01*
G75*
G02*
X268285735Y-129126458I8768J49225D01*
G01*
X268461102Y-128141955D01*
G75*
G02*
X268519095Y-128101498I49225J-8768D01*
G01*
X269306698Y-128241791D01*
G75*
G02*
X269347155Y-128299784I-8768J-49225D01*
G01*
X269171788Y-129284287D01*
G75*
G02*
X269113795Y-129324744I-49225J8768D01*
G01*
G37*
G36*
G01*
X271289547Y-129712305D02*
X270501944Y-129572012D01*
G75*
G02*
X270461487Y-129514019I8768J49225D01*
G01*
X270636854Y-128529516D01*
G75*
G02*
X270694847Y-128489059I49225J-8768D01*
G01*
X271482450Y-128629352D01*
G75*
G02*
X271522907Y-128687345I-8768J-49225D01*
G01*
X271347540Y-129671848D01*
G75*
G02*
X271289547Y-129712305I-49225J8768D01*
G01*
G37*
G36*
G01*
X270009370Y-136899178D02*
X269221767Y-136758885D01*
G75*
G02*
X269181310Y-136700892I8768J49225D01*
G01*
X269356677Y-135716389D01*
G75*
G02*
X269414670Y-135675932I49225J-8768D01*
G01*
X270202273Y-135816225D01*
G75*
G02*
X270242730Y-135874218I-8768J-49225D01*
G01*
X270067363Y-136858721D01*
G75*
G02*
X270009370Y-136899178I-49225J8768D01*
G01*
G37*
G36*
G01*
X268599236Y-130502763D02*
X267122481Y-130239713D01*
G75*
G02*
X267082024Y-130181720I8768J49225D01*
G01*
X267204781Y-129492568D01*
G75*
G02*
X267262774Y-129452111I49225J-8768D01*
G01*
X268739529Y-129715161D01*
G75*
G02*
X268779986Y-129773154I-8768J-49225D01*
G01*
X268657229Y-130462306D01*
G75*
G02*
X268599236Y-130502763I-49225J8768D01*
G01*
G37*
G36*
G01*
X268336185Y-131979518D02*
X266859430Y-131716468D01*
G75*
G02*
X266818973Y-131658475I8768J49225D01*
G01*
X266941730Y-130969323D01*
G75*
G02*
X266999723Y-130928866I49225J-8768D01*
G01*
X268476478Y-131191916D01*
G75*
G02*
X268516935Y-131249909I-8768J-49225D01*
G01*
X268394178Y-131939061D01*
G75*
G02*
X268336185Y-131979518I-49225J8768D01*
G01*
G37*
G36*
G01*
X267810085Y-134933028D02*
X266333330Y-134669978D01*
G75*
G02*
X266292873Y-134611985I8768J49225D01*
G01*
X266415630Y-133922833D01*
G75*
G02*
X266473623Y-133882376I49225J-8768D01*
G01*
X267950378Y-134145426D01*
G75*
G02*
X267990835Y-134203419I-8768J-49225D01*
G01*
X267868078Y-134892571D01*
G75*
G02*
X267810085Y-134933028I-49225J8768D01*
G01*
G37*
X269532205Y-131024460D03*
X269006105Y-133977970D03*
G04 #@! TD*
D17*
G04 #@! TO.C,RST*
X182881635Y-136763096D03*
G36*
G01*
X183731635Y-135563096D02*
X182031635Y-135563096D01*
G75*
G02*
X181981635Y-135513096I0J50000D01*
G01*
X181981635Y-134613096D01*
G75*
G02*
X182031635Y-134563096I50000J0D01*
G01*
X183731635Y-134563096D01*
G75*
G02*
X183781635Y-134613096I0J-50000D01*
G01*
X183781635Y-135513096D01*
G75*
G02*
X183731635Y-135563096I-50000J0D01*
G01*
G37*
G36*
G01*
X183731635Y-138963096D02*
X182031635Y-138963096D01*
G75*
G02*
X181981635Y-138913096I0J50000D01*
G01*
X181981635Y-138013096D01*
G75*
G02*
X182031635Y-137963096I50000J0D01*
G01*
X183731635Y-137963096D01*
G75*
G02*
X183781635Y-138013096I0J-50000D01*
G01*
X183781635Y-138913096D01*
G75*
G02*
X183731635Y-138963096I-50000J0D01*
G01*
G37*
G04 #@! TD*
M02*
