G04 #@! TF.GenerationSoftware,KiCad,Pcbnew,5.1.10*
G04 #@! TF.CreationDate,2021-11-20T23:24:55-06:00*
G04 #@! TF.ProjectId,a_quax_quax,615f7175-6178-45f7-9175-61782e6b6963,VERSION_HERE*
G04 #@! TF.SameCoordinates,Original*
G04 #@! TF.FileFunction,Profile,NP*
%FSLAX46Y46*%
G04 Gerber Fmt 4.6, Leading zero omitted, Abs format (unit mm)*
G04 Created by KiCad (PCBNEW 5.1.10) date 2021-11-20 23:24:55*
%MOMM*%
%LPD*%
G01*
G04 APERTURE LIST*
G04 #@! TA.AperFunction,Profile*
%ADD10C,0.150000*%
G04 #@! TD*
G04 APERTURE END LIST*
D10*
X238313563Y-58419849D02*
X238543617Y-58694933D01*
X187724603Y-151071107D02*
X187268570Y-150553112D01*
X177913557Y-80449428D02*
G75*
G02*
X178530536Y-78952505I2505623J-157119D01*
G01*
X178775758Y-78619934D02*
G75*
G02*
X180599610Y-77596448I2287982J-1940389D01*
G01*
X178530536Y-78952505D02*
X178775757Y-78619935D01*
X188088343Y-151396195D02*
X187724603Y-151071107D01*
X190212725Y-151950931D02*
G75*
G02*
X188088343Y-151396195I-356795J2978705D01*
G01*
X187268570Y-150553112D02*
G75*
G02*
X186436568Y-149017388I2370719J2277609D01*
G01*
X278559264Y-136150959D02*
G75*
G02*
X278376172Y-136649791I-869153J35998D01*
G01*
X278376172Y-136649791D02*
X273038801Y-150897004D01*
X273038801Y-150897004D02*
G75*
G02*
X271375301Y-152164106I-2535608J1603339D01*
G01*
X271375300Y-152164106D02*
G75*
G02*
X269090157Y-151940045I-872106J2870442D01*
G01*
X256656934Y-147320000D02*
X269090157Y-151940045D01*
X198153374Y-74572364D02*
G75*
G02*
X197308268Y-75541123I-999814J19199D01*
G01*
X219360281Y-63183891D02*
G75*
G02*
X218480967Y-64209801I-999449J-33153D01*
G01*
X239855201Y-62465989D02*
G75*
G02*
X238909830Y-61500605I54080J998538D01*
G01*
X261091152Y-66423334D02*
G75*
G02*
X260214970Y-65791692I54080J998537D01*
G01*
X275131328Y-133092066D02*
G75*
G02*
X274655352Y-131988736I871612J1030346D01*
G01*
X278270489Y-135192251D02*
G75*
G02*
X278573064Y-135897337I-630087J-687856D01*
G01*
X256240000Y-147203590D02*
G75*
G02*
X256656934Y-147320000I-54078J-998539D01*
G01*
X221573100Y-148243264D02*
X190212725Y-151950932D01*
X180599610Y-77596448D02*
X197308268Y-75541123D01*
X197643614Y-69483118D02*
X198153373Y-74572364D01*
X197643615Y-69483118D02*
G75*
G02*
X198261080Y-67271601I2978270J360412D01*
G01*
X198261555Y-67270989D02*
X198696911Y-66715761D01*
X198697391Y-66715151D02*
G75*
G02*
X200697787Y-65587990I2360802J-1851111D01*
G01*
X200697787Y-65587990D02*
X218480967Y-64209801D01*
X219360281Y-63183889D02*
X219315907Y-61008262D01*
X219315905Y-61008263D02*
G75*
G02*
X220123772Y-58858976I2998352J99462D01*
G01*
X220123775Y-58858978D02*
G75*
G02*
X222214795Y-57910450I2190484J-2049821D01*
G01*
X222214795Y-57910450D02*
X236565025Y-57828012D01*
X236565025Y-57828012D02*
G75*
G02*
X238313563Y-58419849I-29232J-2965246D01*
G01*
X238543617Y-58694933D02*
G75*
G02*
X238817221Y-59464618I-1010779J-792779D01*
G01*
X238817221Y-59464618D02*
X238909830Y-61500605D01*
X239855203Y-62465988D02*
X257114193Y-63370468D01*
X257114192Y-63370467D02*
G75*
G02*
X259184890Y-64362576I-162233J-2995608D01*
G01*
X259185409Y-64363149D02*
X259656602Y-64888306D01*
X259657119Y-64888883D02*
G75*
G02*
X260214970Y-65791692I-2232934J-2003495D01*
G01*
X278559328Y-136150962D02*
X278573064Y-135897337D01*
X275131328Y-133092066D02*
X278270489Y-135192251D01*
X261091153Y-66423332D02*
X274734629Y-67173067D01*
X274734629Y-67173067D02*
G75*
G02*
X276805326Y-68165181I-162239J-2995609D01*
G01*
X276805842Y-68165758D02*
X277277040Y-68690912D01*
X277277556Y-68691488D02*
G75*
G02*
X278040231Y-70857221I-2232934J-2003497D01*
G01*
X274655352Y-131988736D02*
X278040231Y-70857221D01*
X221273100Y-148243264D02*
X256240000Y-147203590D01*
X177913559Y-80449425D02*
X186436568Y-149017388D01*
M02*
