M48
; DRILL file {KiCad 5.1.10} date Mon Dec  6 09:03:47 2021
; FORMAT={-:-/ absolute / metric / decimal}
; #@! TF.CreationDate,2021-12-06T09:03:47-06:00
; #@! TF.GenerationSoftware,Kicad,Pcbnew,5.1.10
; #@! TF.FileFunction,Plated,1,2,PTH
FMAT,2
METRIC
T1C0.300
T2C0.400
T3C0.800
T4C0.813
%
G90
G05
T2
X183.047Y-133.72
X184.062Y-142.932
X185.941Y-133.441
X186.606Y-142.882
X188.34Y-139.499
X188.633Y-133.777
X190.511Y-139.261
X191.738Y-127.453
X192.552Y-138.327
X194.026Y-131.683
X195.98Y-138.339
X196.55Y-131.67
X198.071Y-138.3
X198.997Y-131.56
X200.604Y-138.373
X201.642Y-131.704
X203.136Y-138.446
X204.188Y-131.721
X205.668Y-138.519
X206.712Y-131.709
X208.2Y-138.592
X209.256Y-131.658
X210.732Y-138.665
X211.788Y-131.733
X265.195Y-134.169
X265.512Y-132.699
T3
X219.223Y-138.587
X219.227Y-136.587
T4
X185.209Y-144.211
X185.262Y-128.992
X187.749Y-144.22
X187.802Y-129.0
X190.289Y-144.229
X190.342Y-129.009
X192.829Y-144.238
X192.882Y-129.018
X195.369Y-144.247
X195.422Y-129.027
X197.909Y-144.256
X197.962Y-129.036
X200.449Y-144.265
X200.502Y-129.045
X202.989Y-144.274
X203.042Y-129.054
X205.529Y-144.282
X205.582Y-129.063
X208.069Y-144.291
X208.122Y-129.071
X210.609Y-144.3
X210.662Y-129.08
X213.149Y-144.309
X213.202Y-129.089
T1
X185.121Y-74.858G85X185.821Y-74.852
G05
X185.125Y-93.95G85X185.825Y-93.944
G05
X185.129Y-113.043G85X185.828Y-113.037
G05
X190.121Y-86.305G85X190.821Y-86.305
G05
X190.125Y-105.397G85X190.825Y-105.397
G05
X190.128Y-124.49G85X190.828Y-124.49
G05
X195.121Y-74.858G85X195.821Y-74.852
G05
X195.125Y-93.95G85X195.825Y-93.944
G05
X195.129Y-113.043G85X195.828Y-113.037
G05
X204.812Y-103.221G85X205.512Y-103.248
G05
X205.694Y-84.246G85X206.393Y-84.273
G05
X206.593Y-65.228G85X207.293Y-65.255
G05
X209.268Y-114.891G85X209.967Y-114.924
G05
X210.149Y-95.915G85X210.848Y-95.948
G05
X211.048Y-76.898G85X211.748Y-76.931
G05
X214.801Y-103.692G85X215.501Y-103.719
G05
X215.683Y-84.717G85X216.382Y-84.744
G05
X216.582Y-65.699G85X217.282Y-65.726
G05
X224.778Y-98.3G85X225.474Y-98.375
G05
X226.997Y-79.377G85X227.693Y-79.453
G05
X228.408Y-110.252G85X229.103Y-110.334
G05
X229.215Y-60.455G85X229.911Y-60.531
G05
X230.627Y-91.33G85X231.322Y-91.411
G05
X232.846Y-72.407G85X233.541Y-72.489
G05
X234.71Y-99.466G85X235.406Y-99.542
G05
X236.928Y-80.544G85X237.624Y-80.62
G05
X239.147Y-61.622G85X239.843Y-61.697
G05
X241.276Y-130.443G85X241.93Y-130.692
G05
X241.776Y-142.925G85X242.428Y-143.179
G05
X243.312Y-104.987G85X244.002Y-105.104
G05
X246.227Y-117.133G85X246.917Y-117.256
G05
X246.644Y-86.282G85X247.335Y-86.398
G05
X249.559Y-98.428G85X250.249Y-98.551
G05
X249.976Y-67.576G85X250.666Y-67.693
G05
X250.593Y-134.076G85X251.247Y-134.324
G05
X252.891Y-79.722G85X253.58Y-79.845
G05
X253.157Y-106.741G85X253.848Y-106.858
G05
X256.489Y-88.035G85X257.18Y-88.152
G05
X259.515Y-150.882G85X260.136Y-151.206
G05
X259.821Y-69.33G85X260.511Y-69.446
G05
X260.365Y-138.42G85X260.989Y-138.738
G05
X261.521Y-111.108G85X262.211Y-111.225
G05
X264.436Y-123.255G85X265.125Y-123.378
G05
X264.853Y-92.403G85X265.543Y-92.52
G05
X267.768Y-104.549G85X268.457Y-104.672
G05
X268.185Y-73.697G85X268.875Y-73.814
G05
X269.235Y-143.038G85X269.859Y-143.355
G05
X271.1Y-85.844G85X271.789Y-85.966
G05
X271.366Y-112.862G85X272.056Y-112.979
G05
X274.698Y-94.157G85X275.388Y-94.273
G05
X278.03Y-75.451G85X278.72Y-75.568
G05
T2
X185.071Y-84.305G85X185.671Y-84.305
G05
X185.075Y-103.397G85X185.675Y-103.397
G05
X185.078Y-122.49G85X185.678Y-122.49
G05
X195.271Y-84.305G85X195.871Y-84.305
G05
X195.275Y-103.397G85X195.875Y-103.397
G05
X195.278Y-122.49G85X195.878Y-122.49
G05
X204.317Y-112.655G85X204.917Y-112.684
G05
X205.199Y-93.68G85X205.798Y-93.708
G05
X206.098Y-74.662G85X206.698Y-74.69
G05
X214.506Y-113.136G85X215.105Y-113.164
G05
X215.387Y-94.16G85X215.987Y-94.189
G05
X216.287Y-75.142G85X216.886Y-75.171
G05
X223.626Y-107.676G85X224.222Y-107.746
G05
X225.845Y-88.754G85X226.441Y-88.824
G05
X228.064Y-69.832G85X228.659Y-69.902
G05
X233.756Y-108.866G85X234.352Y-108.936
G05
X235.975Y-89.944G85X236.571Y-90.014
G05
X237.798Y-139.227G85X238.357Y-139.445
G05
X238.194Y-71.022G85X238.79Y-71.092
G05
X241.606Y-114.279G85X242.197Y-114.384
G05
X244.938Y-95.573G85X245.529Y-95.679
G05
X247.301Y-142.932G85X247.86Y-143.15
G05
X248.27Y-76.868G85X248.861Y-76.973
G05
X251.648Y-116.068G85X252.239Y-116.173
G05
X254.98Y-97.362G85X255.571Y-97.467
G05
X255.959Y-146.777G85X256.491Y-147.054
G05
X258.312Y-78.656G85X258.903Y-78.762
G05
X259.815Y-120.4G85X260.406Y-120.505
G05
X263.147Y-101.695G85X263.738Y-101.8
G05
X265.006Y-151.486G85X265.539Y-151.763
G05
X266.479Y-82.989G85X267.07Y-83.094
G05
X269.857Y-122.189G85X270.448Y-122.294
G05
X273.189Y-103.483G85X273.78Y-103.589
G05
X276.521Y-84.778G85X277.112Y-84.883
G05
T0
M30
