G04 #@! TF.GenerationSoftware,KiCad,Pcbnew,5.1.10*
G04 #@! TF.CreationDate,2021-11-19T21:52:55-06:00*
G04 #@! TF.ProjectId,a_quax_quax,615f7175-6178-45f7-9175-61782e6b6963,VERSION_HERE*
G04 #@! TF.SameCoordinates,Original*
G04 #@! TF.FileFunction,Paste,Top*
G04 #@! TF.FilePolarity,Positive*
%FSLAX46Y46*%
G04 Gerber Fmt 4.6, Leading zero omitted, Abs format (unit mm)*
G04 Created by KiCad (PCBNEW 5.1.10) date 2021-11-19 21:52:55*
%MOMM*%
%LPD*%
G01*
G04 APERTURE LIST*
%ADD10C,0.100000*%
G04 APERTURE END LIST*
D10*
G04 #@! TO.C,C1*
G36*
X190318459Y-147648835D02*
G01*
X189325493Y-147767239D01*
X189207089Y-146774273D01*
X190200055Y-146655869D01*
X190318459Y-147648835D01*
G37*
G36*
X190168086Y-146387769D02*
G01*
X189175120Y-146506173D01*
X189056716Y-145513207D01*
X190049682Y-145394803D01*
X190168086Y-146387769D01*
G37*
G36*
X189115475Y-137560305D02*
G01*
X188122509Y-137678709D01*
X188004105Y-136685743D01*
X188997071Y-136567339D01*
X189115475Y-137560305D01*
G37*
G36*
X189265848Y-138821371D02*
G01*
X188272882Y-138939775D01*
X188154478Y-137946809D01*
X189147444Y-137828405D01*
X189265848Y-138821371D01*
G37*
G36*
X192690218Y-146087022D02*
G01*
X191697252Y-146205426D01*
X191578848Y-145212460D01*
X192571814Y-145094056D01*
X192690218Y-146087022D01*
G37*
G36*
X191787980Y-138520625D02*
G01*
X190795014Y-138639029D01*
X190676610Y-137646063D01*
X191669576Y-137527659D01*
X191787980Y-138520625D01*
G37*
G36*
X192840591Y-147348089D02*
G01*
X191847625Y-147466493D01*
X191729221Y-146473527D01*
X192722187Y-146355123D01*
X192840591Y-147348089D01*
G37*
G36*
X191637607Y-137259559D02*
G01*
X190644641Y-137377963D01*
X190526237Y-136384997D01*
X191519203Y-136266593D01*
X191637607Y-137259559D01*
G37*
G36*
X195212351Y-145786276D02*
G01*
X194219385Y-145904680D01*
X194100981Y-144911714D01*
X195093947Y-144793310D01*
X195212351Y-145786276D01*
G37*
G36*
X194310112Y-138219879D02*
G01*
X193317146Y-138338283D01*
X193198742Y-137345317D01*
X194191708Y-137226913D01*
X194310112Y-138219879D01*
G37*
G36*
X195362724Y-147047343D02*
G01*
X194369758Y-147165747D01*
X194251354Y-146172781D01*
X195244320Y-146054377D01*
X195362724Y-147047343D01*
G37*
G36*
X194159739Y-136958813D02*
G01*
X193166773Y-137077217D01*
X193048369Y-136084251D01*
X194041335Y-135965847D01*
X194159739Y-136958813D01*
G37*
G36*
X197734483Y-145485530D02*
G01*
X196741517Y-145603934D01*
X196623113Y-144610968D01*
X197616079Y-144492564D01*
X197734483Y-145485530D01*
G37*
G36*
X196832245Y-137919133D02*
G01*
X195839279Y-138037537D01*
X195720875Y-137044571D01*
X196713841Y-136926167D01*
X196832245Y-137919133D01*
G37*
G36*
X197884856Y-146746596D02*
G01*
X196891890Y-146865000D01*
X196773486Y-145872034D01*
X197766452Y-145753630D01*
X197884856Y-146746596D01*
G37*
G36*
X196681872Y-136658067D02*
G01*
X195688906Y-136776471D01*
X195570502Y-135783505D01*
X196563468Y-135665101D01*
X196681872Y-136658067D01*
G37*
G36*
X200256615Y-145184784D02*
G01*
X199263649Y-145303188D01*
X199145245Y-144310222D01*
X200138211Y-144191818D01*
X200256615Y-145184784D01*
G37*
G36*
X199354377Y-137618387D02*
G01*
X198361411Y-137736791D01*
X198243007Y-136743825D01*
X199235973Y-136625421D01*
X199354377Y-137618387D01*
G37*
G36*
X200406988Y-146445850D02*
G01*
X199414022Y-146564254D01*
X199295618Y-145571288D01*
X200288584Y-145452884D01*
X200406988Y-146445850D01*
G37*
G36*
X199204004Y-136357321D02*
G01*
X198211038Y-136475725D01*
X198092634Y-135482759D01*
X199085600Y-135364355D01*
X199204004Y-136357321D01*
G37*
G36*
X202778748Y-144884038D02*
G01*
X201785782Y-145002442D01*
X201667378Y-144009476D01*
X202660344Y-143891072D01*
X202778748Y-144884038D01*
G37*
G36*
X201876510Y-137317641D02*
G01*
X200883544Y-137436045D01*
X200765140Y-136443079D01*
X201758106Y-136324675D01*
X201876510Y-137317641D01*
G37*
G36*
X202929121Y-146145104D02*
G01*
X201936155Y-146263508D01*
X201817751Y-145270542D01*
X202810717Y-145152138D01*
X202929121Y-146145104D01*
G37*
G36*
X201726137Y-136056575D02*
G01*
X200733171Y-136174979D01*
X200614767Y-135182013D01*
X201607733Y-135063609D01*
X201726137Y-136056575D01*
G37*
G36*
X217911542Y-143079562D02*
G01*
X216918576Y-143197966D01*
X216800172Y-142205000D01*
X217793138Y-142086596D01*
X217911542Y-143079562D01*
G37*
G36*
X217009304Y-135513164D02*
G01*
X216016338Y-135631568D01*
X215897934Y-134638602D01*
X216890900Y-134520198D01*
X217009304Y-135513164D01*
G37*
G36*
X218061915Y-144340628D02*
G01*
X217068949Y-144459032D01*
X216950545Y-143466066D01*
X217943511Y-143347662D01*
X218061915Y-144340628D01*
G37*
G36*
X216858931Y-134252098D02*
G01*
X215865965Y-134370502D01*
X215747561Y-133377536D01*
X216740527Y-133259132D01*
X216858931Y-134252098D01*
G37*
G36*
X215389410Y-143380308D02*
G01*
X214396444Y-143498712D01*
X214278040Y-142505746D01*
X215271006Y-142387342D01*
X215389410Y-143380308D01*
G37*
G36*
X214487172Y-135813911D02*
G01*
X213494206Y-135932315D01*
X213375802Y-134939349D01*
X214368768Y-134820945D01*
X214487172Y-135813911D01*
G37*
G36*
X215539783Y-144641374D02*
G01*
X214546817Y-144759778D01*
X214428413Y-143766812D01*
X215421379Y-143648408D01*
X215539783Y-144641374D01*
G37*
G36*
X214336799Y-134552844D02*
G01*
X213343833Y-134671248D01*
X213225429Y-133678282D01*
X214218395Y-133559878D01*
X214336799Y-134552844D01*
G37*
G36*
X212867277Y-143681054D02*
G01*
X211874311Y-143799458D01*
X211755907Y-142806492D01*
X212748873Y-142688088D01*
X212867277Y-143681054D01*
G37*
G36*
X211965039Y-136114657D02*
G01*
X210972073Y-136233061D01*
X210853669Y-135240095D01*
X211846635Y-135121691D01*
X211965039Y-136114657D01*
G37*
G36*
X213017650Y-144942120D02*
G01*
X212024684Y-145060524D01*
X211906280Y-144067558D01*
X212899246Y-143949154D01*
X213017650Y-144942120D01*
G37*
G36*
X211814666Y-134853590D02*
G01*
X210821700Y-134971994D01*
X210703296Y-133979028D01*
X211696262Y-133860624D01*
X211814666Y-134853590D01*
G37*
G36*
X210345145Y-143981800D02*
G01*
X209352179Y-144100204D01*
X209233775Y-143107238D01*
X210226741Y-142988834D01*
X210345145Y-143981800D01*
G37*
G36*
X209442907Y-136415403D02*
G01*
X208449941Y-136533807D01*
X208331537Y-135540841D01*
X209324503Y-135422437D01*
X209442907Y-136415403D01*
G37*
G36*
X210495518Y-145242866D02*
G01*
X209502552Y-145361270D01*
X209384148Y-144368304D01*
X210377114Y-144249900D01*
X210495518Y-145242866D01*
G37*
G36*
X209292534Y-135154337D02*
G01*
X208299568Y-135272741D01*
X208181164Y-134279775D01*
X209174130Y-134161371D01*
X209292534Y-135154337D01*
G37*
G36*
X207823013Y-144282546D02*
G01*
X206830047Y-144400950D01*
X206711643Y-143407984D01*
X207704609Y-143289580D01*
X207823013Y-144282546D01*
G37*
G36*
X206920774Y-136716149D02*
G01*
X205927808Y-136834553D01*
X205809404Y-135841587D01*
X206802370Y-135723183D01*
X206920774Y-136716149D01*
G37*
G36*
X207973386Y-145543612D02*
G01*
X206980420Y-145662016D01*
X206862016Y-144669050D01*
X207854982Y-144550646D01*
X207973386Y-145543612D01*
G37*
G36*
X206770401Y-135455083D02*
G01*
X205777435Y-135573487D01*
X205659031Y-134580521D01*
X206651997Y-134462117D01*
X206770401Y-135455083D01*
G37*
G36*
X205300880Y-144583292D02*
G01*
X204307914Y-144701696D01*
X204189510Y-143708730D01*
X205182476Y-143590326D01*
X205300880Y-144583292D01*
G37*
G36*
X204398642Y-137016895D02*
G01*
X203405676Y-137135299D01*
X203287272Y-136142333D01*
X204280238Y-136023929D01*
X204398642Y-137016895D01*
G37*
G36*
X205451253Y-145844358D02*
G01*
X204458287Y-145962762D01*
X204339883Y-144969796D01*
X205332849Y-144851392D01*
X205451253Y-145844358D01*
G37*
G36*
X204248269Y-135755829D02*
G01*
X203255303Y-135874233D01*
X203136899Y-134881267D01*
X204129865Y-134762863D01*
X204248269Y-135755829D01*
G37*
G04 #@! TD*
G04 #@! TO.C,REF\u002A\u002A*
G36*
X271249962Y-131874006D02*
G01*
X270451133Y-131830743D01*
X270505212Y-130832206D01*
X271304041Y-130875469D01*
X271249962Y-131874006D01*
G37*
G36*
X271644737Y-124584689D02*
G01*
X270845908Y-124541426D01*
X270899987Y-123542889D01*
X271698816Y-123586152D01*
X271644737Y-124584689D01*
G37*
G36*
X273851503Y-124704203D02*
G01*
X273052674Y-124660940D01*
X273106753Y-123662403D01*
X273905582Y-123705666D01*
X273851503Y-124704203D01*
G37*
G36*
X273456728Y-131993521D02*
G01*
X272657899Y-131950258D01*
X272711978Y-130951721D01*
X273510807Y-130994984D01*
X273456728Y-131993521D01*
G37*
G36*
X271277578Y-125816636D02*
G01*
X269779773Y-125735518D01*
X269817628Y-125036542D01*
X271315433Y-125117660D01*
X271277578Y-125816636D01*
G37*
G36*
X271196460Y-127314441D02*
G01*
X269698655Y-127233323D01*
X269736510Y-126534347D01*
X271234315Y-126615465D01*
X271196460Y-127314441D01*
G37*
G36*
X271034223Y-130310051D02*
G01*
X269536418Y-130228933D01*
X269574273Y-129529957D01*
X271072078Y-129611075D01*
X271034223Y-130310051D01*
G37*
G04 #@! TD*
G04 #@! TO.C,RST*
G36*
X187650470Y-141182308D02*
G01*
X185963142Y-141389486D01*
X185853460Y-140496194D01*
X187540788Y-140289016D01*
X187650470Y-141182308D01*
G37*
G36*
X188064826Y-144556964D02*
G01*
X186377498Y-144764142D01*
X186267816Y-143870850D01*
X187955144Y-143663672D01*
X188064826Y-144556964D01*
G37*
G04 #@! TD*
M02*
