M48
; DRILL file {KiCad 5.1.10} date Mon Dec  6 09:03:47 2021
; FORMAT={-:-/ absolute / metric / decimal}
; #@! TF.CreationDate,2021-12-06T09:03:47-06:00
; #@! TF.GenerationSoftware,Kicad,Pcbnew,5.1.10
; #@! TF.FileFunction,NonPlated,1,2,NPTH
FMAT,2
METRIC
T1C0.800
T2C0.900
T3C1.700
T4C1.800
T5C4.900
%
G90
G05
T1
X182.882Y-136.763
X182.882Y-136.763
T2
X269.006Y-133.978
X269.006Y-133.978
X269.532Y-131.024
X269.532Y-131.024
T3
X185.391Y-80.405
X185.395Y-99.497
X185.398Y-118.59
X195.551Y-80.405
X195.555Y-99.497
X195.558Y-118.59
X204.821Y-108.775
X205.702Y-89.799
X206.602Y-70.781
X214.969Y-109.253
X215.851Y-90.278
X216.75Y-71.26
X224.399Y-103.84
X226.618Y-84.918
X228.836Y-65.996
X234.489Y-105.026
X236.708Y-86.103
X238.927Y-67.181
X239.512Y-135.709
X242.605Y-110.495
X245.937Y-91.79
X248.978Y-139.4
X249.269Y-73.084
X252.608Y-112.277
X255.94Y-93.572
X258.044Y-143.465
X259.272Y-74.866
X260.814Y-116.617
X264.146Y-97.911
X267.056Y-148.156
X267.478Y-79.206
X270.817Y-118.398
X274.149Y-99.693
X277.481Y-80.987
T4
X184.971Y-80.405
X184.975Y-99.497
X184.978Y-118.59
X195.971Y-80.405
X195.975Y-99.497
X195.978Y-118.59
X204.401Y-108.755
X205.282Y-89.779
X206.182Y-70.762
X215.389Y-109.273
X216.27Y-90.298
X217.17Y-71.28
X223.982Y-103.791
X226.201Y-84.869
X228.419Y-65.947
X234.907Y-105.075
X237.125Y-86.152
X239.121Y-135.557
X239.344Y-67.23
X242.192Y-110.422
X245.524Y-91.716
X248.856Y-73.011
X249.37Y-139.553
X253.021Y-112.351
X256.353Y-93.645
X257.671Y-143.271
X259.685Y-74.94
X260.401Y-116.543
X263.733Y-97.838
X267.065Y-79.132
X267.428Y-148.35
X271.23Y-118.472
X274.562Y-99.767
X277.894Y-81.061
T5
X190.471Y-80.405
X190.475Y-99.497
X190.478Y-118.59
X209.895Y-109.014
X210.776Y-90.038
X211.676Y-71.021
X229.444Y-104.433
X231.663Y-85.511
X233.882Y-66.588
X244.245Y-137.555
X247.607Y-111.386
X250.939Y-92.681
X254.271Y-73.975
X262.55Y-145.811
X265.815Y-117.508
X269.147Y-98.802
X272.479Y-80.097
T0
M30
