G04 #@! TF.GenerationSoftware,KiCad,Pcbnew,5.1.10*
G04 #@! TF.CreationDate,2021-11-20T23:24:55-06:00*
G04 #@! TF.ProjectId,a_quax_quax,615f7175-6178-45f7-9175-61782e6b6963,VERSION_HERE*
G04 #@! TF.SameCoordinates,Original*
G04 #@! TF.FileFunction,Soldermask,Bot*
G04 #@! TF.FilePolarity,Negative*
%FSLAX46Y46*%
G04 Gerber Fmt 4.6, Leading zero omitted, Abs format (unit mm)*
G04 Created by KiCad (PCBNEW 5.1.10) date 2021-11-20 23:24:55*
%MOMM*%
%LPD*%
G01*
G04 APERTURE LIST*
%ADD10C,5.000000*%
%ADD11C,1.900000*%
%ADD12C,1.800000*%
%ADD13C,1.624000*%
%ADD14C,0.100000*%
%ADD15C,0.900000*%
%ADD16C,1.000000*%
G04 APERTURE END LIST*
G04 #@! TO.C,S6*
G36*
G01*
X181438953Y-80835916D02*
X181438953Y-80835916D01*
G75*
G02*
X181611137Y-80611522I198289J26105D01*
G01*
X182305149Y-80520154D01*
G75*
G02*
X182529543Y-80692338I26105J-198289D01*
G01*
X182529543Y-80692338D01*
G75*
G02*
X182357359Y-80916732I-198289J-26105D01*
G01*
X181663347Y-81008100D01*
G75*
G02*
X181438953Y-80835916I-26105J198289D01*
G01*
G37*
G36*
G01*
X192019202Y-89052957D02*
X192019202Y-89052957D01*
G75*
G02*
X192759277Y-88105704I843664J103589D01*
G01*
X193354805Y-88032582D01*
G75*
G02*
X194302058Y-88772657I103589J-843664D01*
G01*
X194302058Y-88772657D01*
G75*
G02*
X193561983Y-89719910I-843664J-103589D01*
G01*
X192966455Y-89793032D01*
G75*
G02*
X192019202Y-89052957I-103589J843664D01*
G01*
G37*
G36*
G01*
X191364415Y-79617222D02*
X191364415Y-79617222D01*
G75*
G02*
X191536599Y-79392828I198289J26105D01*
G01*
X192230611Y-79301460D01*
G75*
G02*
X192455005Y-79473644I26105J-198289D01*
G01*
X192455005Y-79473644D01*
G75*
G02*
X192282821Y-79698038I-198289J-26105D01*
G01*
X191588809Y-79789406D01*
G75*
G02*
X191364415Y-79617222I-26105J198289D01*
G01*
G37*
G36*
G01*
X181895231Y-90296025D02*
X181895231Y-90296025D01*
G75*
G02*
X182635306Y-89348772I843664J103589D01*
G01*
X183230834Y-89275650D01*
G75*
G02*
X184178087Y-90015725I103589J-843664D01*
G01*
X184178087Y-90015725D01*
G75*
G02*
X183438012Y-90962978I-843664J-103589D01*
G01*
X182842484Y-91036100D01*
G75*
G02*
X181895231Y-90296025I-103589J843664D01*
G01*
G37*
D10*
X187623354Y-85663411D03*
D11*
X182164350Y-86333692D03*
X193082358Y-84993130D03*
G36*
G01*
X187200955Y-91659582D02*
X187200955Y-91659582D01*
G75*
G02*
X187897497Y-90768050I794037J97495D01*
G01*
X188592279Y-90682742D01*
G75*
G02*
X189483811Y-91379284I97495J-794037D01*
G01*
X189483811Y-91379284D01*
G75*
G02*
X188787269Y-92270816I-794037J-97495D01*
G01*
X188092487Y-92356124D01*
G75*
G02*
X187200955Y-91659582I-97495J794037D01*
G01*
G37*
D12*
X192665488Y-85044315D03*
X182581220Y-86282507D03*
G04 #@! TD*
G04 #@! TO.C,S4*
G36*
G01*
X183769583Y-99785686D02*
X183769583Y-99785686D01*
G75*
G02*
X183941767Y-99561292I198289J26105D01*
G01*
X184635779Y-99469924D01*
G75*
G02*
X184860173Y-99642108I26105J-198289D01*
G01*
X184860173Y-99642108D01*
G75*
G02*
X184687989Y-99866502I-198289J-26105D01*
G01*
X183993977Y-99957870D01*
G75*
G02*
X183769583Y-99785686I-26105J198289D01*
G01*
G37*
G36*
G01*
X194349832Y-108002727D02*
X194349832Y-108002727D01*
G75*
G02*
X195089907Y-107055474I843664J103589D01*
G01*
X195685435Y-106982352D01*
G75*
G02*
X196632688Y-107722427I103589J-843664D01*
G01*
X196632688Y-107722427D01*
G75*
G02*
X195892613Y-108669680I-843664J-103589D01*
G01*
X195297085Y-108742802D01*
G75*
G02*
X194349832Y-108002727I-103589J843664D01*
G01*
G37*
G36*
G01*
X193695045Y-98566992D02*
X193695045Y-98566992D01*
G75*
G02*
X193867229Y-98342598I198289J26105D01*
G01*
X194561241Y-98251230D01*
G75*
G02*
X194785635Y-98423414I26105J-198289D01*
G01*
X194785635Y-98423414D01*
G75*
G02*
X194613451Y-98647808I-198289J-26105D01*
G01*
X193919439Y-98739176D01*
G75*
G02*
X193695045Y-98566992I-26105J198289D01*
G01*
G37*
G36*
G01*
X184225861Y-109245795D02*
X184225861Y-109245795D01*
G75*
G02*
X184965936Y-108298542I843664J103589D01*
G01*
X185561464Y-108225420D01*
G75*
G02*
X186508717Y-108965495I103589J-843664D01*
G01*
X186508717Y-108965495D01*
G75*
G02*
X185768642Y-109912748I-843664J-103589D01*
G01*
X185173114Y-109985870D01*
G75*
G02*
X184225861Y-109245795I-103589J843664D01*
G01*
G37*
D10*
X189953984Y-104613181D03*
D11*
X184494980Y-105283462D03*
X195412988Y-103942900D03*
G36*
G01*
X189531585Y-110609352D02*
X189531585Y-110609352D01*
G75*
G02*
X190228127Y-109717820I794037J97495D01*
G01*
X190922909Y-109632512D01*
G75*
G02*
X191814441Y-110329054I97495J-794037D01*
G01*
X191814441Y-110329054D01*
G75*
G02*
X191117899Y-111220586I-794037J-97495D01*
G01*
X190423117Y-111305894D01*
G75*
G02*
X189531585Y-110609352I-97495J794037D01*
G01*
G37*
D12*
X194996118Y-103994085D03*
X184911850Y-105232277D03*
G04 #@! TD*
G04 #@! TO.C,S16*
G36*
G01*
X223551813Y-80195211D02*
X223551813Y-80195211D01*
G75*
G02*
X223749002Y-79992438I199981J2792D01*
G01*
X224448934Y-79982664D01*
G75*
G02*
X224651707Y-80179853I2792J-199981D01*
G01*
X224651707Y-80179853D01*
G75*
G02*
X224454518Y-80382626I-199981J-2792D01*
G01*
X223754586Y-80392400D01*
G75*
G02*
X223551813Y-80195211I-2792J199981D01*
G01*
G37*
G36*
G01*
X233101117Y-89590541D02*
X233101117Y-89590541D01*
G75*
G02*
X233946654Y-88736102I849988J4451D01*
G01*
X234546646Y-88732960D01*
G75*
G02*
X235401085Y-89578497I4451J-849988D01*
G01*
X235401085Y-89578497D01*
G75*
G02*
X234555548Y-90432936I-849988J-4451D01*
G01*
X233955556Y-90436078D01*
G75*
G02*
X233101117Y-89590541I-4451J849988D01*
G01*
G37*
G36*
G01*
X233551676Y-80142851D02*
X233551676Y-80142851D01*
G75*
G02*
X233748865Y-79940078I199981J2792D01*
G01*
X234448797Y-79930304D01*
G75*
G02*
X234651570Y-80127493I2792J-199981D01*
G01*
X234651570Y-80127493D01*
G75*
G02*
X234454381Y-80330266I-199981J-2792D01*
G01*
X233754449Y-80340040D01*
G75*
G02*
X233551676Y-80142851I-2792J199981D01*
G01*
G37*
G36*
G01*
X222901257Y-89643948D02*
X222901257Y-89643948D01*
G75*
G02*
X223746794Y-88789509I849988J4451D01*
G01*
X224346786Y-88786367D01*
G75*
G02*
X225201225Y-89631904I4451J-849988D01*
G01*
X225201225Y-89631904D01*
G75*
G02*
X224355688Y-90486343I-849988J-4451D01*
G01*
X223755696Y-90489485D01*
G75*
G02*
X222901257Y-89643948I-4451J849988D01*
G01*
G37*
D10*
X229130751Y-85711276D03*
D11*
X223630826Y-85740074D03*
X234630676Y-85682478D03*
G36*
G01*
X228011659Y-91617217D02*
X228011659Y-91617217D01*
G75*
G02*
X228807459Y-90813039I799989J4189D01*
G01*
X229507449Y-90809373D01*
G75*
G02*
X230311627Y-91605173I4189J-799989D01*
G01*
X230311627Y-91605173D01*
G75*
G02*
X229515827Y-92409351I-799989J-4189D01*
G01*
X228815837Y-92413017D01*
G75*
G02*
X228011659Y-91617217I-4189J799989D01*
G01*
G37*
D12*
X234210681Y-85684677D03*
X224050821Y-85737875D03*
G04 #@! TD*
G04 #@! TO.C,S34*
G36*
G01*
X263879302Y-134659996D02*
X263879302Y-134659996D01*
G75*
G02*
X264135645Y-134540461I187939J-68404D01*
G01*
X264793429Y-134779875D01*
G75*
G02*
X264912964Y-135036218I-68404J-187939D01*
G01*
X264912964Y-135036218D01*
G75*
G02*
X264656621Y-135155753I-187939J68404D01*
G01*
X263998837Y-134916339D01*
G75*
G02*
X263879302Y-134659996I68404J187939D01*
G01*
G37*
G36*
G01*
X269469889Y-146834016D02*
X269469889Y-146834016D01*
G75*
G02*
X270563736Y-146335521I796171J-297676D01*
G01*
X271125740Y-146545645D01*
G75*
G02*
X271624235Y-147639492I-297676J-796171D01*
G01*
X271624235Y-147639492D01*
G75*
G02*
X270530388Y-148137987I-796171J297676D01*
G01*
X269968384Y-147927863D01*
G75*
G02*
X269469889Y-146834016I297676J796171D01*
G01*
G37*
G36*
G01*
X273246024Y-138162070D02*
X273246024Y-138162070D01*
G75*
G02*
X273502367Y-138042535I187939J-68404D01*
G01*
X274160151Y-138281949D01*
G75*
G02*
X274279686Y-138538292I-68404J-187939D01*
G01*
X274279686Y-138538292D01*
G75*
G02*
X274023343Y-138657827I-187939J68404D01*
G01*
X273365559Y-138418413D01*
G75*
G02*
X273246024Y-138162070I68404J187939D01*
G01*
G37*
G36*
G01*
X259915833Y-143261901D02*
X259915833Y-143261901D01*
G75*
G02*
X261009680Y-142763406I796171J-297676D01*
G01*
X261571684Y-142973530D01*
G75*
G02*
X262070179Y-144067377I-297676J-796171D01*
G01*
X262070179Y-144067377D01*
G75*
G02*
X260976332Y-144565872I-796171J297676D01*
G01*
X260414328Y-144355748D01*
G75*
G02*
X259915833Y-143261901I297676J796171D01*
G01*
G37*
D10*
X267135843Y-141797675D03*
D11*
X261984146Y-139871534D03*
X272287540Y-143723816D03*
G36*
G01*
X263992446Y-146921302D02*
X263992446Y-146921302D01*
G75*
G02*
X265021950Y-146452130I749338J-280166D01*
G01*
X265677620Y-146697276D01*
G75*
G02*
X266146792Y-147726780I-280166J-749338D01*
G01*
X266146792Y-147726780D01*
G75*
G02*
X265117288Y-148195952I-749338J280166D01*
G01*
X264461618Y-147950806D01*
G75*
G02*
X263992446Y-146921302I280166J749338D01*
G01*
G37*
D12*
X271894138Y-143576728D03*
X262377548Y-140018622D03*
G04 #@! TD*
G04 #@! TO.C,S28*
G36*
G01*
X262713506Y-88498158D02*
X262713506Y-88498158D01*
G75*
G02*
X262922373Y-88307437I199794J-9073D01*
G01*
X263621653Y-88339191D01*
G75*
G02*
X263812374Y-88548058I-9073J-199794D01*
G01*
X263812374Y-88548058D01*
G75*
G02*
X263603507Y-88738779I-199794J9073D01*
G01*
X262904227Y-88707025D01*
G75*
G02*
X262713506Y-88498158I9073J199794D01*
G01*
G37*
G36*
G01*
X271688799Y-98443285D02*
X271688799Y-98443285D01*
G75*
G02*
X272583522Y-97640496I848756J-45967D01*
G01*
X273182644Y-97672944D01*
G75*
G02*
X273985433Y-98567667I-45967J-848756D01*
G01*
X273985433Y-98567667D01*
G75*
G02*
X273090710Y-99370456I-848756J45967D01*
G01*
X272491588Y-99338008D01*
G75*
G02*
X271688799Y-98443285I45967J848756D01*
G01*
G37*
G36*
G01*
X272698873Y-89038947D02*
X272698873Y-89038947D01*
G75*
G02*
X272907740Y-88848226I199794J-9073D01*
G01*
X273607020Y-88879980D01*
G75*
G02*
X273797741Y-89088847I-9073J-199794D01*
G01*
X273797741Y-89088847D01*
G75*
G02*
X273588874Y-89279568I-199794J9073D01*
G01*
X272889594Y-89247814D01*
G75*
G02*
X272698873Y-89038947I9073J199794D01*
G01*
G37*
G36*
G01*
X261503725Y-97891681D02*
X261503725Y-97891681D01*
G75*
G02*
X262398448Y-97088892I848756J-45967D01*
G01*
X262997570Y-97121340D01*
G75*
G02*
X263800359Y-98016063I-45967J-848756D01*
G01*
X263800359Y-98016063D01*
G75*
G02*
X262905636Y-98818852I-848756J45967D01*
G01*
X262306514Y-98786404D01*
G75*
G02*
X261503725Y-97891681I45967J848756D01*
G01*
G37*
D10*
X267955486Y-94335381D03*
D11*
X262463534Y-94037948D03*
X273447438Y-94632814D03*
G36*
G01*
X266488104Y-100164556D02*
X266488104Y-100164556D01*
G75*
G02*
X267330196Y-99408990I798829J-43263D01*
G01*
X268029172Y-99446846D01*
G75*
G02*
X268784738Y-100288938I-43263J-798829D01*
G01*
X268784738Y-100288938D01*
G75*
G02*
X267942646Y-101044504I-798829J43263D01*
G01*
X267243670Y-101006648D01*
G75*
G02*
X266488104Y-100164556I43263J798829D01*
G01*
G37*
D12*
X273028052Y-94610101D03*
X262882920Y-94060661D03*
G04 #@! TD*
G04 #@! TO.C,S32*
G36*
G01*
X243953631Y-129089659D02*
X243953631Y-129089659D01*
G75*
G02*
X244195565Y-128943139I194227J-47707D01*
G01*
X244875359Y-129110113D01*
G75*
G02*
X245021879Y-129352047I-47707J-194227D01*
G01*
X245021879Y-129352047D01*
G75*
G02*
X244779945Y-129498567I-194227J47707D01*
G01*
X244100151Y-129331593D01*
G75*
G02*
X243953631Y-129089659I47707J194227D01*
G01*
G37*
G36*
G01*
X250826305Y-140588692D02*
X250826305Y-140588692D01*
G75*
G02*
X251859917Y-139974978I823663J-209949D01*
G01*
X252441327Y-140123178D01*
G75*
G02*
X253055041Y-141156790I-209949J-823663D01*
G01*
X253055041Y-141156790D01*
G75*
G02*
X252021429Y-141770504I-823663J209949D01*
G01*
X251440019Y-141622304D01*
G75*
G02*
X250826305Y-140588692I209949J823663D01*
G01*
G37*
G36*
G01*
X253643788Y-131559649D02*
X253643788Y-131559649D01*
G75*
G02*
X253885722Y-131413129I194227J-47707D01*
G01*
X254565516Y-131580103D01*
G75*
G02*
X254712036Y-131822037I-47707J-194227D01*
G01*
X254712036Y-131822037D01*
G75*
G02*
X254470102Y-131968557I-194227J47707D01*
G01*
X253790308Y-131801583D01*
G75*
G02*
X253643788Y-131559649I47707J194227D01*
G01*
G37*
G36*
G01*
X240942345Y-138069302D02*
X240942345Y-138069302D01*
G75*
G02*
X241975957Y-137455588I823663J-209949D01*
G01*
X242557367Y-137603788D01*
G75*
G02*
X243171081Y-138637400I-209949J-823663D01*
G01*
X243171081Y-138637400D01*
G75*
G02*
X242137469Y-139251114I-823663J209949D01*
G01*
X241556059Y-139102914D01*
G75*
G02*
X240942345Y-138069302I209949J823663D01*
G01*
G37*
D10*
X247961989Y-135833885D03*
D11*
X242632402Y-134475390D03*
X253291576Y-137192380D03*
G36*
G01*
X245390326Y-141267029D02*
X245390326Y-141267029D01*
G75*
G02*
X246363138Y-140689415I775213J-197599D01*
G01*
X247041450Y-140862315D01*
G75*
G02*
X247619064Y-141835127I-197599J-775213D01*
G01*
X247619064Y-141835127D01*
G75*
G02*
X246646252Y-142412741I-775213J197599D01*
G01*
X245967940Y-142239841D01*
G75*
G02*
X245390326Y-141267029I197599J775213D01*
G01*
G37*
D12*
X252884589Y-137088640D03*
X243039389Y-134579130D03*
G04 #@! TD*
G04 #@! TO.C,S24*
G36*
G01*
X244922046Y-65669241D02*
X244922046Y-65669241D01*
G75*
G02*
X245130913Y-65478520I199794J-9073D01*
G01*
X245830193Y-65510274D01*
G75*
G02*
X246020914Y-65719141I-9073J-199794D01*
G01*
X246020914Y-65719141D01*
G75*
G02*
X245812047Y-65909862I-199794J9073D01*
G01*
X245112767Y-65878108D01*
G75*
G02*
X244922046Y-65669241I9073J199794D01*
G01*
G37*
G36*
G01*
X253897339Y-75614368D02*
X253897339Y-75614368D01*
G75*
G02*
X254792062Y-74811579I848756J-45967D01*
G01*
X255391184Y-74844027D01*
G75*
G02*
X256193973Y-75738750I-45967J-848756D01*
G01*
X256193973Y-75738750D01*
G75*
G02*
X255299250Y-76541539I-848756J45967D01*
G01*
X254700128Y-76509091D01*
G75*
G02*
X253897339Y-75614368I45967J848756D01*
G01*
G37*
G36*
G01*
X254907413Y-66210030D02*
X254907413Y-66210030D01*
G75*
G02*
X255116280Y-66019309I199794J-9073D01*
G01*
X255815560Y-66051063D01*
G75*
G02*
X256006281Y-66259930I-9073J-199794D01*
G01*
X256006281Y-66259930D01*
G75*
G02*
X255797414Y-66450651I-199794J9073D01*
G01*
X255098134Y-66418897D01*
G75*
G02*
X254907413Y-66210030I9073J199794D01*
G01*
G37*
G36*
G01*
X243712265Y-75062764D02*
X243712265Y-75062764D01*
G75*
G02*
X244606988Y-74259975I848756J-45967D01*
G01*
X245206110Y-74292423D01*
G75*
G02*
X246008899Y-75187146I-45967J-848756D01*
G01*
X246008899Y-75187146D01*
G75*
G02*
X245114176Y-75989935I-848756J45967D01*
G01*
X244515054Y-75957487D01*
G75*
G02*
X243712265Y-75062764I45967J848756D01*
G01*
G37*
D10*
X250164026Y-71506464D03*
D11*
X244672074Y-71209031D03*
X255655978Y-71803897D03*
G36*
G01*
X248696644Y-77335639D02*
X248696644Y-77335639D01*
G75*
G02*
X249538736Y-76580073I798829J-43263D01*
G01*
X250237712Y-76617929D01*
G75*
G02*
X250993278Y-77460021I-43263J-798829D01*
G01*
X250993278Y-77460021D01*
G75*
G02*
X250151186Y-78215587I-798829J43263D01*
G01*
X249452210Y-78177731D01*
G75*
G02*
X248696644Y-77335639I43263J798829D01*
G01*
G37*
D12*
X255236592Y-71781184D03*
X245091460Y-71231744D03*
G04 #@! TD*
G04 #@! TO.C,S18*
G36*
G01*
X223447984Y-61143525D02*
X223447984Y-61143525D01*
G75*
G02*
X223645173Y-60940752I199981J2792D01*
G01*
X224345105Y-60930978D01*
G75*
G02*
X224547878Y-61128167I2792J-199981D01*
G01*
X224547878Y-61128167D01*
G75*
G02*
X224350689Y-61330940I-199981J-2792D01*
G01*
X223650757Y-61340714D01*
G75*
G02*
X223447984Y-61143525I-2792J199981D01*
G01*
G37*
G36*
G01*
X232997288Y-70538855D02*
X232997288Y-70538855D01*
G75*
G02*
X233842825Y-69684416I849988J4451D01*
G01*
X234442817Y-69681274D01*
G75*
G02*
X235297256Y-70526811I4451J-849988D01*
G01*
X235297256Y-70526811D01*
G75*
G02*
X234451719Y-71381250I-849988J-4451D01*
G01*
X233851727Y-71384392D01*
G75*
G02*
X232997288Y-70538855I-4451J849988D01*
G01*
G37*
G36*
G01*
X233447847Y-61091165D02*
X233447847Y-61091165D01*
G75*
G02*
X233645036Y-60888392I199981J2792D01*
G01*
X234344968Y-60878618D01*
G75*
G02*
X234547741Y-61075807I2792J-199981D01*
G01*
X234547741Y-61075807D01*
G75*
G02*
X234350552Y-61278580I-199981J-2792D01*
G01*
X233650620Y-61288354D01*
G75*
G02*
X233447847Y-61091165I-2792J199981D01*
G01*
G37*
G36*
G01*
X222797428Y-70592262D02*
X222797428Y-70592262D01*
G75*
G02*
X223642965Y-69737823I849988J4451D01*
G01*
X224242957Y-69734681D01*
G75*
G02*
X225097396Y-70580218I4451J-849988D01*
G01*
X225097396Y-70580218D01*
G75*
G02*
X224251859Y-71434657I-849988J-4451D01*
G01*
X223651867Y-71437799D01*
G75*
G02*
X222797428Y-70592262I-4451J849988D01*
G01*
G37*
D10*
X229026922Y-66659590D03*
D11*
X223526997Y-66688388D03*
X234526847Y-66630792D03*
G36*
G01*
X227907830Y-72565531D02*
X227907830Y-72565531D01*
G75*
G02*
X228703630Y-71761353I799989J4189D01*
G01*
X229403620Y-71757687D01*
G75*
G02*
X230207798Y-72553487I4189J-799989D01*
G01*
X230207798Y-72553487D01*
G75*
G02*
X229411998Y-73357665I-799989J-4189D01*
G01*
X228712008Y-73361331D01*
G75*
G02*
X227907830Y-72565531I-4189J799989D01*
G01*
G37*
D12*
X234106852Y-66632991D03*
X223946992Y-66686189D03*
G04 #@! TD*
G04 #@! TO.C,S26*
G36*
G01*
X261686057Y-107470345D02*
X261686057Y-107470345D01*
G75*
G02*
X261894924Y-107279624I199794J-9073D01*
G01*
X262594204Y-107311378D01*
G75*
G02*
X262784925Y-107520245I-9073J-199794D01*
G01*
X262784925Y-107520245D01*
G75*
G02*
X262576058Y-107710966I-199794J9073D01*
G01*
X261876778Y-107679212D01*
G75*
G02*
X261686057Y-107470345I9073J199794D01*
G01*
G37*
G36*
G01*
X270661350Y-117415472D02*
X270661350Y-117415472D01*
G75*
G02*
X271556073Y-116612683I848756J-45967D01*
G01*
X272155195Y-116645131D01*
G75*
G02*
X272957984Y-117539854I-45967J-848756D01*
G01*
X272957984Y-117539854D01*
G75*
G02*
X272063261Y-118342643I-848756J45967D01*
G01*
X271464139Y-118310195D01*
G75*
G02*
X270661350Y-117415472I45967J848756D01*
G01*
G37*
G36*
G01*
X271671424Y-108011134D02*
X271671424Y-108011134D01*
G75*
G02*
X271880291Y-107820413I199794J-9073D01*
G01*
X272579571Y-107852167D01*
G75*
G02*
X272770292Y-108061034I-9073J-199794D01*
G01*
X272770292Y-108061034D01*
G75*
G02*
X272561425Y-108251755I-199794J9073D01*
G01*
X271862145Y-108220001D01*
G75*
G02*
X271671424Y-108011134I9073J199794D01*
G01*
G37*
G36*
G01*
X260476276Y-116863868D02*
X260476276Y-116863868D01*
G75*
G02*
X261370999Y-116061079I848756J-45967D01*
G01*
X261970121Y-116093527D01*
G75*
G02*
X262772910Y-116988250I-45967J-848756D01*
G01*
X262772910Y-116988250D01*
G75*
G02*
X261878187Y-117791039I-848756J45967D01*
G01*
X261279065Y-117758591D01*
G75*
G02*
X260476276Y-116863868I45967J848756D01*
G01*
G37*
D10*
X266928037Y-113307568D03*
D11*
X261436085Y-113010135D03*
X272419989Y-113605001D03*
G36*
G01*
X265460655Y-119136743D02*
X265460655Y-119136743D01*
G75*
G02*
X266302747Y-118381177I798829J-43263D01*
G01*
X267001723Y-118419033D01*
G75*
G02*
X267757289Y-119261125I-43263J-798829D01*
G01*
X267757289Y-119261125D01*
G75*
G02*
X266915197Y-120016691I-798829J43263D01*
G01*
X266216221Y-119978835D01*
G75*
G02*
X265460655Y-119136743I43263J798829D01*
G01*
G37*
D12*
X272000603Y-113582288D03*
X261855471Y-113032848D03*
G04 #@! TD*
G04 #@! TO.C,S20*
G36*
G01*
X242867048Y-103613715D02*
X242867048Y-103613715D01*
G75*
G02*
X243075915Y-103422994I199794J-9073D01*
G01*
X243775195Y-103454748D01*
G75*
G02*
X243965916Y-103663615I-9073J-199794D01*
G01*
X243965916Y-103663615D01*
G75*
G02*
X243757049Y-103854336I-199794J9073D01*
G01*
X243057769Y-103822582D01*
G75*
G02*
X242867048Y-103613715I9073J199794D01*
G01*
G37*
G36*
G01*
X251842341Y-113558842D02*
X251842341Y-113558842D01*
G75*
G02*
X252737064Y-112756053I848756J-45967D01*
G01*
X253336186Y-112788501D01*
G75*
G02*
X254138975Y-113683224I-45967J-848756D01*
G01*
X254138975Y-113683224D01*
G75*
G02*
X253244252Y-114486013I-848756J45967D01*
G01*
X252645130Y-114453565D01*
G75*
G02*
X251842341Y-113558842I45967J848756D01*
G01*
G37*
G36*
G01*
X252852415Y-104154504D02*
X252852415Y-104154504D01*
G75*
G02*
X253061282Y-103963783I199794J-9073D01*
G01*
X253760562Y-103995537D01*
G75*
G02*
X253951283Y-104204404I-9073J-199794D01*
G01*
X253951283Y-104204404D01*
G75*
G02*
X253742416Y-104395125I-199794J9073D01*
G01*
X253043136Y-104363371D01*
G75*
G02*
X252852415Y-104154504I9073J199794D01*
G01*
G37*
G36*
G01*
X241657267Y-113007238D02*
X241657267Y-113007238D01*
G75*
G02*
X242551990Y-112204449I848756J-45967D01*
G01*
X243151112Y-112236897D01*
G75*
G02*
X243953901Y-113131620I-45967J-848756D01*
G01*
X243953901Y-113131620D01*
G75*
G02*
X243059178Y-113934409I-848756J45967D01*
G01*
X242460056Y-113901961D01*
G75*
G02*
X241657267Y-113007238I45967J848756D01*
G01*
G37*
D10*
X248109028Y-109450938D03*
D11*
X242617076Y-109153505D03*
X253600980Y-109748371D03*
G36*
G01*
X246641646Y-115280113D02*
X246641646Y-115280113D01*
G75*
G02*
X247483738Y-114524547I798829J-43263D01*
G01*
X248182714Y-114562403D01*
G75*
G02*
X248938280Y-115404495I-43263J-798829D01*
G01*
X248938280Y-115404495D01*
G75*
G02*
X248096188Y-116160061I-798829J43263D01*
G01*
X247397212Y-116122205D01*
G75*
G02*
X246641646Y-115280113I43263J798829D01*
G01*
G37*
D12*
X253181594Y-109725658D03*
X243036462Y-109176218D03*
G04 #@! TD*
G04 #@! TO.C,S22*
G36*
G01*
X243894599Y-84641526D02*
X243894599Y-84641526D01*
G75*
G02*
X244103466Y-84450805I199794J-9073D01*
G01*
X244802746Y-84482559D01*
G75*
G02*
X244993467Y-84691426I-9073J-199794D01*
G01*
X244993467Y-84691426D01*
G75*
G02*
X244784600Y-84882147I-199794J9073D01*
G01*
X244085320Y-84850393D01*
G75*
G02*
X243894599Y-84641526I9073J199794D01*
G01*
G37*
G36*
G01*
X252869892Y-94586653D02*
X252869892Y-94586653D01*
G75*
G02*
X253764615Y-93783864I848756J-45967D01*
G01*
X254363737Y-93816312D01*
G75*
G02*
X255166526Y-94711035I-45967J-848756D01*
G01*
X255166526Y-94711035D01*
G75*
G02*
X254271803Y-95513824I-848756J45967D01*
G01*
X253672681Y-95481376D01*
G75*
G02*
X252869892Y-94586653I45967J848756D01*
G01*
G37*
G36*
G01*
X253879966Y-85182315D02*
X253879966Y-85182315D01*
G75*
G02*
X254088833Y-84991594I199794J-9073D01*
G01*
X254788113Y-85023348D01*
G75*
G02*
X254978834Y-85232215I-9073J-199794D01*
G01*
X254978834Y-85232215D01*
G75*
G02*
X254769967Y-85422936I-199794J9073D01*
G01*
X254070687Y-85391182D01*
G75*
G02*
X253879966Y-85182315I9073J199794D01*
G01*
G37*
G36*
G01*
X242684818Y-94035049D02*
X242684818Y-94035049D01*
G75*
G02*
X243579541Y-93232260I848756J-45967D01*
G01*
X244178663Y-93264708D01*
G75*
G02*
X244981452Y-94159431I-45967J-848756D01*
G01*
X244981452Y-94159431D01*
G75*
G02*
X244086729Y-94962220I-848756J45967D01*
G01*
X243487607Y-94929772D01*
G75*
G02*
X242684818Y-94035049I45967J848756D01*
G01*
G37*
D10*
X249136579Y-90478749D03*
D11*
X243644627Y-90181316D03*
X254628531Y-90776182D03*
G36*
G01*
X247669197Y-96307924D02*
X247669197Y-96307924D01*
G75*
G02*
X248511289Y-95552358I798829J-43263D01*
G01*
X249210265Y-95590214D01*
G75*
G02*
X249965831Y-96432306I-43263J-798829D01*
G01*
X249965831Y-96432306D01*
G75*
G02*
X249123739Y-97187872I-798829J43263D01*
G01*
X248424763Y-97150016D01*
G75*
G02*
X247669197Y-96307924I43263J798829D01*
G01*
G37*
D12*
X254209145Y-90753469D03*
X244064013Y-90204029D03*
G04 #@! TD*
G04 #@! TO.C,S30*
G36*
G01*
X263741058Y-69525969D02*
X263741058Y-69525969D01*
G75*
G02*
X263949925Y-69335248I199794J-9073D01*
G01*
X264649205Y-69367002D01*
G75*
G02*
X264839926Y-69575869I-9073J-199794D01*
G01*
X264839926Y-69575869D01*
G75*
G02*
X264631059Y-69766590I-199794J9073D01*
G01*
X263931779Y-69734836D01*
G75*
G02*
X263741058Y-69525969I9073J199794D01*
G01*
G37*
G36*
G01*
X272716351Y-79471096D02*
X272716351Y-79471096D01*
G75*
G02*
X273611074Y-78668307I848756J-45967D01*
G01*
X274210196Y-78700755D01*
G75*
G02*
X275012985Y-79595478I-45967J-848756D01*
G01*
X275012985Y-79595478D01*
G75*
G02*
X274118262Y-80398267I-848756J45967D01*
G01*
X273519140Y-80365819D01*
G75*
G02*
X272716351Y-79471096I45967J848756D01*
G01*
G37*
G36*
G01*
X273726425Y-70066758D02*
X273726425Y-70066758D01*
G75*
G02*
X273935292Y-69876037I199794J-9073D01*
G01*
X274634572Y-69907791D01*
G75*
G02*
X274825293Y-70116658I-9073J-199794D01*
G01*
X274825293Y-70116658D01*
G75*
G02*
X274616426Y-70307379I-199794J9073D01*
G01*
X273917146Y-70275625D01*
G75*
G02*
X273726425Y-70066758I9073J199794D01*
G01*
G37*
G36*
G01*
X262531277Y-78919492D02*
X262531277Y-78919492D01*
G75*
G02*
X263426000Y-78116703I848756J-45967D01*
G01*
X264025122Y-78149151D01*
G75*
G02*
X264827911Y-79043874I-45967J-848756D01*
G01*
X264827911Y-79043874D01*
G75*
G02*
X263933188Y-79846663I-848756J45967D01*
G01*
X263334066Y-79814215D01*
G75*
G02*
X262531277Y-78919492I45967J848756D01*
G01*
G37*
D10*
X268983038Y-75363192D03*
D11*
X263491086Y-75065759D03*
X274474990Y-75660625D03*
G36*
G01*
X267515656Y-81192367D02*
X267515656Y-81192367D01*
G75*
G02*
X268357748Y-80436801I798829J-43263D01*
G01*
X269056724Y-80474657D01*
G75*
G02*
X269812290Y-81316749I-43263J-798829D01*
G01*
X269812290Y-81316749D01*
G75*
G02*
X268970198Y-82072315I-798829J43263D01*
G01*
X268271222Y-82034459D01*
G75*
G02*
X267515656Y-81192367I43263J798829D01*
G01*
G37*
D12*
X274055604Y-75637912D03*
X263910472Y-75088472D03*
G04 #@! TD*
G04 #@! TO.C,S10*
G36*
G01*
X203001530Y-87637251D02*
X203001530Y-87637251D01*
G75*
G02*
X203184093Y-87421216I199299J16736D01*
G01*
X203881639Y-87362642D01*
G75*
G02*
X204097674Y-87545205I16736J-199299D01*
G01*
X204097674Y-87545205D01*
G75*
G02*
X203915111Y-87761240I-199299J-16736D01*
G01*
X203217565Y-87819814D01*
G75*
G02*
X203001530Y-87637251I-16736J199299D01*
G01*
G37*
G36*
G01*
X213182958Y-96343569D02*
X213182958Y-96343569D01*
G75*
G02*
X213966833Y-95432230I847607J63732D01*
G01*
X214565145Y-95387242D01*
G75*
G02*
X215476484Y-96171117I63732J-847607D01*
G01*
X215476484Y-96171117D01*
G75*
G02*
X214692609Y-97082456I-847607J-63732D01*
G01*
X214094297Y-97127444D01*
G75*
G02*
X213182958Y-96343569I-63732J847607D01*
G01*
G37*
G36*
G01*
X212973382Y-86887464D02*
X212973382Y-86887464D01*
G75*
G02*
X213155945Y-86671429I199299J16736D01*
G01*
X213853491Y-86612855D01*
G75*
G02*
X214069526Y-86795418I16736J-199299D01*
G01*
X214069526Y-86795418D01*
G75*
G02*
X213886963Y-87011453I-199299J-16736D01*
G01*
X213189417Y-87070027D01*
G75*
G02*
X212973382Y-86887464I-16736J199299D01*
G01*
G37*
G36*
G01*
X203011670Y-97108352D02*
X203011670Y-97108352D01*
G75*
G02*
X203795545Y-96197013I847607J63732D01*
G01*
X204393857Y-96152025D01*
G75*
G02*
X205305196Y-96935900I63732J-847607D01*
G01*
X205305196Y-96935900D01*
G75*
G02*
X204521321Y-97847239I-847607J-63732D01*
G01*
X203923009Y-97892227D01*
G75*
G02*
X203011670Y-97108352I-63732J847607D01*
G01*
G37*
D10*
X208951660Y-92750712D03*
D11*
X203467142Y-93163095D03*
X214436178Y-92338329D03*
G36*
G01*
X208247271Y-98720330D02*
X208247271Y-98720330D01*
G75*
G02*
X208985036Y-97862599I797748J59983D01*
G01*
X209683066Y-97810113D01*
G75*
G02*
X210540797Y-98547878I59983J-797748D01*
G01*
X210540797Y-98547878D01*
G75*
G02*
X209803032Y-99405609I-797748J-59983D01*
G01*
X209105002Y-99458095D01*
G75*
G02*
X208247271Y-98720330I-59983J797748D01*
G01*
G37*
D12*
X214017360Y-92369820D03*
X203885960Y-93131604D03*
G04 #@! TD*
G04 #@! TO.C,S14*
G36*
G01*
X223655646Y-99246897D02*
X223655646Y-99246897D01*
G75*
G02*
X223852835Y-99044124I199981J2792D01*
G01*
X224552767Y-99034350D01*
G75*
G02*
X224755540Y-99231539I2792J-199981D01*
G01*
X224755540Y-99231539D01*
G75*
G02*
X224558351Y-99434312I-199981J-2792D01*
G01*
X223858419Y-99444086D01*
G75*
G02*
X223655646Y-99246897I-2792J199981D01*
G01*
G37*
G36*
G01*
X233204950Y-108642227D02*
X233204950Y-108642227D01*
G75*
G02*
X234050487Y-107787788I849988J4451D01*
G01*
X234650479Y-107784646D01*
G75*
G02*
X235504918Y-108630183I4451J-849988D01*
G01*
X235504918Y-108630183D01*
G75*
G02*
X234659381Y-109484622I-849988J-4451D01*
G01*
X234059389Y-109487764D01*
G75*
G02*
X233204950Y-108642227I-4451J849988D01*
G01*
G37*
G36*
G01*
X233655509Y-99194537D02*
X233655509Y-99194537D01*
G75*
G02*
X233852698Y-98991764I199981J2792D01*
G01*
X234552630Y-98981990D01*
G75*
G02*
X234755403Y-99179179I2792J-199981D01*
G01*
X234755403Y-99179179D01*
G75*
G02*
X234558214Y-99381952I-199981J-2792D01*
G01*
X233858282Y-99391726D01*
G75*
G02*
X233655509Y-99194537I-2792J199981D01*
G01*
G37*
G36*
G01*
X223005090Y-108695634D02*
X223005090Y-108695634D01*
G75*
G02*
X223850627Y-107841195I849988J4451D01*
G01*
X224450619Y-107838053D01*
G75*
G02*
X225305058Y-108683590I4451J-849988D01*
G01*
X225305058Y-108683590D01*
G75*
G02*
X224459521Y-109538029I-849988J-4451D01*
G01*
X223859529Y-109541171D01*
G75*
G02*
X223005090Y-108695634I-4451J849988D01*
G01*
G37*
D10*
X229234584Y-104762962D03*
D11*
X223734659Y-104791760D03*
X234734509Y-104734164D03*
G36*
G01*
X228115492Y-110668903D02*
X228115492Y-110668903D01*
G75*
G02*
X228911292Y-109864725I799989J4189D01*
G01*
X229611282Y-109861059D01*
G75*
G02*
X230415460Y-110656859I4189J-799989D01*
G01*
X230415460Y-110656859D01*
G75*
G02*
X229619660Y-111461037I-799989J-4189D01*
G01*
X228919670Y-111464703D01*
G75*
G02*
X228115492Y-110668903I-4189J799989D01*
G01*
G37*
D12*
X234314514Y-104736363D03*
X224154654Y-104789561D03*
G04 #@! TD*
G04 #@! TO.C,S12*
G36*
G01*
X201576760Y-68651508D02*
X201576760Y-68651508D01*
G75*
G02*
X201759323Y-68435473I199299J16736D01*
G01*
X202456869Y-68376899D01*
G75*
G02*
X202672904Y-68559462I16736J-199299D01*
G01*
X202672904Y-68559462D01*
G75*
G02*
X202490341Y-68775497I-199299J-16736D01*
G01*
X201792795Y-68834071D01*
G75*
G02*
X201576760Y-68651508I-16736J199299D01*
G01*
G37*
G36*
G01*
X211758188Y-77357826D02*
X211758188Y-77357826D01*
G75*
G02*
X212542063Y-76446487I847607J63732D01*
G01*
X213140375Y-76401499D01*
G75*
G02*
X214051714Y-77185374I63732J-847607D01*
G01*
X214051714Y-77185374D01*
G75*
G02*
X213267839Y-78096713I-847607J-63732D01*
G01*
X212669527Y-78141701D01*
G75*
G02*
X211758188Y-77357826I-63732J847607D01*
G01*
G37*
G36*
G01*
X211548612Y-67901721D02*
X211548612Y-67901721D01*
G75*
G02*
X211731175Y-67685686I199299J16736D01*
G01*
X212428721Y-67627112D01*
G75*
G02*
X212644756Y-67809675I16736J-199299D01*
G01*
X212644756Y-67809675D01*
G75*
G02*
X212462193Y-68025710I-199299J-16736D01*
G01*
X211764647Y-68084284D01*
G75*
G02*
X211548612Y-67901721I-16736J199299D01*
G01*
G37*
G36*
G01*
X201586900Y-78122609D02*
X201586900Y-78122609D01*
G75*
G02*
X202370775Y-77211270I847607J63732D01*
G01*
X202969087Y-77166282D01*
G75*
G02*
X203880426Y-77950157I63732J-847607D01*
G01*
X203880426Y-77950157D01*
G75*
G02*
X203096551Y-78861496I-847607J-63732D01*
G01*
X202498239Y-78906484D01*
G75*
G02*
X201586900Y-78122609I-63732J847607D01*
G01*
G37*
D10*
X207526890Y-73764969D03*
D11*
X202042372Y-74177352D03*
X213011408Y-73352586D03*
G36*
G01*
X206822501Y-79734587D02*
X206822501Y-79734587D01*
G75*
G02*
X207560266Y-78876856I797748J59983D01*
G01*
X208258296Y-78824370D01*
G75*
G02*
X209116027Y-79562135I59983J-797748D01*
G01*
X209116027Y-79562135D01*
G75*
G02*
X208378262Y-80419866I-797748J-59983D01*
G01*
X207680232Y-80472352D01*
G75*
G02*
X206822501Y-79734587I-59983J797748D01*
G01*
G37*
D12*
X212592590Y-73384077D03*
X202461190Y-74145861D03*
G04 #@! TD*
G04 #@! TO.C,S2*
G36*
G01*
X186100213Y-118735451D02*
X186100213Y-118735451D01*
G75*
G02*
X186272397Y-118511057I198289J26105D01*
G01*
X186966409Y-118419689D01*
G75*
G02*
X187190803Y-118591873I26105J-198289D01*
G01*
X187190803Y-118591873D01*
G75*
G02*
X187018619Y-118816267I-198289J-26105D01*
G01*
X186324607Y-118907635D01*
G75*
G02*
X186100213Y-118735451I-26105J198289D01*
G01*
G37*
G36*
G01*
X196680462Y-126952492D02*
X196680462Y-126952492D01*
G75*
G02*
X197420537Y-126005239I843664J103589D01*
G01*
X198016065Y-125932117D01*
G75*
G02*
X198963318Y-126672192I103589J-843664D01*
G01*
X198963318Y-126672192D01*
G75*
G02*
X198223243Y-127619445I-843664J-103589D01*
G01*
X197627715Y-127692567D01*
G75*
G02*
X196680462Y-126952492I-103589J843664D01*
G01*
G37*
G36*
G01*
X196025675Y-117516757D02*
X196025675Y-117516757D01*
G75*
G02*
X196197859Y-117292363I198289J26105D01*
G01*
X196891871Y-117200995D01*
G75*
G02*
X197116265Y-117373179I26105J-198289D01*
G01*
X197116265Y-117373179D01*
G75*
G02*
X196944081Y-117597573I-198289J-26105D01*
G01*
X196250069Y-117688941D01*
G75*
G02*
X196025675Y-117516757I-26105J198289D01*
G01*
G37*
G36*
G01*
X186556491Y-128195560D02*
X186556491Y-128195560D01*
G75*
G02*
X187296566Y-127248307I843664J103589D01*
G01*
X187892094Y-127175185D01*
G75*
G02*
X188839347Y-127915260I103589J-843664D01*
G01*
X188839347Y-127915260D01*
G75*
G02*
X188099272Y-128862513I-843664J-103589D01*
G01*
X187503744Y-128935635D01*
G75*
G02*
X186556491Y-128195560I-103589J843664D01*
G01*
G37*
D10*
X192284614Y-123562946D03*
D11*
X186825610Y-124233227D03*
X197743618Y-122892665D03*
G36*
G01*
X191862215Y-129559117D02*
X191862215Y-129559117D01*
G75*
G02*
X192558757Y-128667585I794037J97495D01*
G01*
X193253539Y-128582277D01*
G75*
G02*
X194145071Y-129278819I97495J-794037D01*
G01*
X194145071Y-129278819D01*
G75*
G02*
X193448529Y-130170351I-794037J-97495D01*
G01*
X192753747Y-130255659D01*
G75*
G02*
X191862215Y-129559117I-97495J794037D01*
G01*
G37*
D12*
X197326748Y-122943850D03*
X187242480Y-124182042D03*
G04 #@! TD*
G04 #@! TO.C,S8*
G36*
G01*
X204439301Y-106578723D02*
X204439301Y-106578723D01*
G75*
G02*
X204621864Y-106362688I199299J16736D01*
G01*
X205319410Y-106304114D01*
G75*
G02*
X205535445Y-106486677I16736J-199299D01*
G01*
X205535445Y-106486677D01*
G75*
G02*
X205352882Y-106702712I-199299J-16736D01*
G01*
X204655336Y-106761286D01*
G75*
G02*
X204439301Y-106578723I-16736J199299D01*
G01*
G37*
G36*
G01*
X214620729Y-115285041D02*
X214620729Y-115285041D01*
G75*
G02*
X215404604Y-114373702I847607J63732D01*
G01*
X216002916Y-114328714D01*
G75*
G02*
X216914255Y-115112589I63732J-847607D01*
G01*
X216914255Y-115112589D01*
G75*
G02*
X216130380Y-116023928I-847607J-63732D01*
G01*
X215532068Y-116068916D01*
G75*
G02*
X214620729Y-115285041I-63732J847607D01*
G01*
G37*
G36*
G01*
X214411153Y-105828936D02*
X214411153Y-105828936D01*
G75*
G02*
X214593716Y-105612901I199299J16736D01*
G01*
X215291262Y-105554327D01*
G75*
G02*
X215507297Y-105736890I16736J-199299D01*
G01*
X215507297Y-105736890D01*
G75*
G02*
X215324734Y-105952925I-199299J-16736D01*
G01*
X214627188Y-106011499D01*
G75*
G02*
X214411153Y-105828936I-16736J199299D01*
G01*
G37*
G36*
G01*
X204449441Y-116049824D02*
X204449441Y-116049824D01*
G75*
G02*
X205233316Y-115138485I847607J63732D01*
G01*
X205831628Y-115093497D01*
G75*
G02*
X206742967Y-115877372I63732J-847607D01*
G01*
X206742967Y-115877372D01*
G75*
G02*
X205959092Y-116788711I-847607J-63732D01*
G01*
X205360780Y-116833699D01*
G75*
G02*
X204449441Y-116049824I-63732J847607D01*
G01*
G37*
D10*
X210389431Y-111692184D03*
D11*
X204904913Y-112104567D03*
X215873949Y-111279801D03*
G36*
G01*
X209685042Y-117661802D02*
X209685042Y-117661802D01*
G75*
G02*
X210422807Y-116804071I797748J59983D01*
G01*
X211120837Y-116751585D01*
G75*
G02*
X211978568Y-117489350I59983J-797748D01*
G01*
X211978568Y-117489350D01*
G75*
G02*
X211240803Y-118347081I-797748J-59983D01*
G01*
X210542773Y-118399567D01*
G75*
G02*
X209685042Y-117661802I-59983J797748D01*
G01*
G37*
D12*
X215455131Y-111311292D03*
X205323731Y-112073076D03*
G04 #@! TD*
D13*
G04 #@! TO.C,C1*
X190182949Y-149662646D03*
X192705081Y-149361899D03*
X195227213Y-149061153D03*
X197749346Y-148760407D03*
X200271478Y-148459661D03*
X202793611Y-148158915D03*
X205315743Y-147858169D03*
X207837875Y-147557423D03*
X210360008Y-147256677D03*
X212882140Y-146955931D03*
X215404273Y-146655185D03*
X217926405Y-146354439D03*
X216124297Y-131241504D03*
X213602164Y-131542250D03*
X211080032Y-131842996D03*
X208557899Y-132143742D03*
X206035767Y-132444488D03*
X203513635Y-132745234D03*
X200991502Y-133045980D03*
X198469370Y-133346726D03*
X195947237Y-133647472D03*
X193425105Y-133948218D03*
X190902973Y-134248964D03*
X188380840Y-134549711D03*
D14*
G36*
X190374027Y-147692563D02*
G01*
X189281765Y-147822807D01*
X189151521Y-146730545D01*
X190243783Y-146600301D01*
X190374027Y-147692563D01*
G37*
G36*
X190223654Y-146431497D02*
G01*
X189131392Y-146561741D01*
X189001148Y-145469479D01*
X190093410Y-145339235D01*
X190223654Y-146431497D01*
G37*
G36*
X189171043Y-137604033D02*
G01*
X188078781Y-137734277D01*
X187948537Y-136642015D01*
X189040799Y-136511771D01*
X189171043Y-137604033D01*
G37*
G36*
X189321416Y-138865099D02*
G01*
X188229154Y-138995343D01*
X188098910Y-137903081D01*
X189191172Y-137772837D01*
X189321416Y-138865099D01*
G37*
G36*
X192745786Y-146130750D02*
G01*
X191653524Y-146260994D01*
X191523280Y-145168732D01*
X192615542Y-145038488D01*
X192745786Y-146130750D01*
G37*
G36*
X191843548Y-138564353D02*
G01*
X190751286Y-138694597D01*
X190621042Y-137602335D01*
X191713304Y-137472091D01*
X191843548Y-138564353D01*
G37*
G36*
X192896159Y-147391817D02*
G01*
X191803897Y-147522061D01*
X191673653Y-146429799D01*
X192765915Y-146299555D01*
X192896159Y-147391817D01*
G37*
G36*
X191693175Y-137303287D02*
G01*
X190600913Y-137433531D01*
X190470669Y-136341269D01*
X191562931Y-136211025D01*
X191693175Y-137303287D01*
G37*
G36*
X195267919Y-145830004D02*
G01*
X194175657Y-145960248D01*
X194045413Y-144867986D01*
X195137675Y-144737742D01*
X195267919Y-145830004D01*
G37*
G36*
X194365680Y-138263607D02*
G01*
X193273418Y-138393851D01*
X193143174Y-137301589D01*
X194235436Y-137171345D01*
X194365680Y-138263607D01*
G37*
G36*
X195418292Y-147091071D02*
G01*
X194326030Y-147221315D01*
X194195786Y-146129053D01*
X195288048Y-145998809D01*
X195418292Y-147091071D01*
G37*
G36*
X194215307Y-137002541D02*
G01*
X193123045Y-137132785D01*
X192992801Y-136040523D01*
X194085063Y-135910279D01*
X194215307Y-137002541D01*
G37*
G36*
X197790051Y-145529258D02*
G01*
X196697789Y-145659502D01*
X196567545Y-144567240D01*
X197659807Y-144436996D01*
X197790051Y-145529258D01*
G37*
G36*
X196887813Y-137962861D02*
G01*
X195795551Y-138093105D01*
X195665307Y-137000843D01*
X196757569Y-136870599D01*
X196887813Y-137962861D01*
G37*
G36*
X197940424Y-146790324D02*
G01*
X196848162Y-146920568D01*
X196717918Y-145828306D01*
X197810180Y-145698062D01*
X197940424Y-146790324D01*
G37*
G36*
X196737440Y-136701795D02*
G01*
X195645178Y-136832039D01*
X195514934Y-135739777D01*
X196607196Y-135609533D01*
X196737440Y-136701795D01*
G37*
G36*
X200312183Y-145228512D02*
G01*
X199219921Y-145358756D01*
X199089677Y-144266494D01*
X200181939Y-144136250D01*
X200312183Y-145228512D01*
G37*
G36*
X199409945Y-137662115D02*
G01*
X198317683Y-137792359D01*
X198187439Y-136700097D01*
X199279701Y-136569853D01*
X199409945Y-137662115D01*
G37*
G36*
X200462556Y-146489578D02*
G01*
X199370294Y-146619822D01*
X199240050Y-145527560D01*
X200332312Y-145397316D01*
X200462556Y-146489578D01*
G37*
G36*
X199259572Y-136401049D02*
G01*
X198167310Y-136531293D01*
X198037066Y-135439031D01*
X199129328Y-135308787D01*
X199259572Y-136401049D01*
G37*
G36*
X202834316Y-144927766D02*
G01*
X201742054Y-145058010D01*
X201611810Y-143965748D01*
X202704072Y-143835504D01*
X202834316Y-144927766D01*
G37*
G36*
X201932078Y-137361369D02*
G01*
X200839816Y-137491613D01*
X200709572Y-136399351D01*
X201801834Y-136269107D01*
X201932078Y-137361369D01*
G37*
G36*
X202984689Y-146188832D02*
G01*
X201892427Y-146319076D01*
X201762183Y-145226814D01*
X202854445Y-145096570D01*
X202984689Y-146188832D01*
G37*
G36*
X201781705Y-136100303D02*
G01*
X200689443Y-136230547D01*
X200559199Y-135138285D01*
X201651461Y-135008041D01*
X201781705Y-136100303D01*
G37*
G36*
X217967110Y-143123290D02*
G01*
X216874848Y-143253534D01*
X216744604Y-142161272D01*
X217836866Y-142031028D01*
X217967110Y-143123290D01*
G37*
G36*
X217064872Y-135556892D02*
G01*
X215972610Y-135687136D01*
X215842366Y-134594874D01*
X216934628Y-134464630D01*
X217064872Y-135556892D01*
G37*
G36*
X218117483Y-144384356D02*
G01*
X217025221Y-144514600D01*
X216894977Y-143422338D01*
X217987239Y-143292094D01*
X218117483Y-144384356D01*
G37*
G36*
X216914499Y-134295826D02*
G01*
X215822237Y-134426070D01*
X215691993Y-133333808D01*
X216784255Y-133203564D01*
X216914499Y-134295826D01*
G37*
G36*
X215444978Y-143424036D02*
G01*
X214352716Y-143554280D01*
X214222472Y-142462018D01*
X215314734Y-142331774D01*
X215444978Y-143424036D01*
G37*
G36*
X214542740Y-135857639D02*
G01*
X213450478Y-135987883D01*
X213320234Y-134895621D01*
X214412496Y-134765377D01*
X214542740Y-135857639D01*
G37*
G36*
X215595351Y-144685102D02*
G01*
X214503089Y-144815346D01*
X214372845Y-143723084D01*
X215465107Y-143592840D01*
X215595351Y-144685102D01*
G37*
G36*
X214392367Y-134596572D02*
G01*
X213300105Y-134726816D01*
X213169861Y-133634554D01*
X214262123Y-133504310D01*
X214392367Y-134596572D01*
G37*
G36*
X212922845Y-143724782D02*
G01*
X211830583Y-143855026D01*
X211700339Y-142762764D01*
X212792601Y-142632520D01*
X212922845Y-143724782D01*
G37*
G36*
X212020607Y-136158385D02*
G01*
X210928345Y-136288629D01*
X210798101Y-135196367D01*
X211890363Y-135066123D01*
X212020607Y-136158385D01*
G37*
G36*
X213073218Y-144985848D02*
G01*
X211980956Y-145116092D01*
X211850712Y-144023830D01*
X212942974Y-143893586D01*
X213073218Y-144985848D01*
G37*
G36*
X211870234Y-134897318D02*
G01*
X210777972Y-135027562D01*
X210647728Y-133935300D01*
X211739990Y-133805056D01*
X211870234Y-134897318D01*
G37*
G36*
X210400713Y-144025528D02*
G01*
X209308451Y-144155772D01*
X209178207Y-143063510D01*
X210270469Y-142933266D01*
X210400713Y-144025528D01*
G37*
G36*
X209498475Y-136459131D02*
G01*
X208406213Y-136589375D01*
X208275969Y-135497113D01*
X209368231Y-135366869D01*
X209498475Y-136459131D01*
G37*
G36*
X210551086Y-145286594D02*
G01*
X209458824Y-145416838D01*
X209328580Y-144324576D01*
X210420842Y-144194332D01*
X210551086Y-145286594D01*
G37*
G36*
X209348102Y-135198065D02*
G01*
X208255840Y-135328309D01*
X208125596Y-134236047D01*
X209217858Y-134105803D01*
X209348102Y-135198065D01*
G37*
G36*
X207878581Y-144326274D02*
G01*
X206786319Y-144456518D01*
X206656075Y-143364256D01*
X207748337Y-143234012D01*
X207878581Y-144326274D01*
G37*
G36*
X206976342Y-136759877D02*
G01*
X205884080Y-136890121D01*
X205753836Y-135797859D01*
X206846098Y-135667615D01*
X206976342Y-136759877D01*
G37*
G36*
X208028954Y-145587340D02*
G01*
X206936692Y-145717584D01*
X206806448Y-144625322D01*
X207898710Y-144495078D01*
X208028954Y-145587340D01*
G37*
G36*
X206825969Y-135498811D02*
G01*
X205733707Y-135629055D01*
X205603463Y-134536793D01*
X206695725Y-134406549D01*
X206825969Y-135498811D01*
G37*
G36*
X205356448Y-144627020D02*
G01*
X204264186Y-144757264D01*
X204133942Y-143665002D01*
X205226204Y-143534758D01*
X205356448Y-144627020D01*
G37*
G36*
X204454210Y-137060623D02*
G01*
X203361948Y-137190867D01*
X203231704Y-136098605D01*
X204323966Y-135968361D01*
X204454210Y-137060623D01*
G37*
G36*
X205506821Y-145888086D02*
G01*
X204414559Y-146018330D01*
X204284315Y-144926068D01*
X205376577Y-144795824D01*
X205506821Y-145888086D01*
G37*
G36*
X204303837Y-135799557D02*
G01*
X203211575Y-135929801D01*
X203081331Y-134837539D01*
X204173593Y-134707295D01*
X204303837Y-135799557D01*
G37*
G36*
X214392367Y-134596572D02*
G01*
X213300105Y-134726816D01*
X213169861Y-133634554D01*
X214262123Y-133504310D01*
X214392367Y-134596572D01*
G37*
G36*
X200312183Y-145228512D02*
G01*
X199219921Y-145358756D01*
X199089677Y-144266494D01*
X200181939Y-144136250D01*
X200312183Y-145228512D01*
G37*
G36*
X195267919Y-145830004D02*
G01*
X194175657Y-145960248D01*
X194045413Y-144867986D01*
X195137675Y-144737742D01*
X195267919Y-145830004D01*
G37*
G36*
X208028954Y-145587340D02*
G01*
X206936692Y-145717584D01*
X206806448Y-144625322D01*
X207898710Y-144495078D01*
X208028954Y-145587340D01*
G37*
G36*
X210551086Y-145286594D02*
G01*
X209458824Y-145416838D01*
X209328580Y-144324576D01*
X210420842Y-144194332D01*
X210551086Y-145286594D01*
G37*
G36*
X207878581Y-144326274D02*
G01*
X206786319Y-144456518D01*
X206656075Y-143364256D01*
X207748337Y-143234012D01*
X207878581Y-144326274D01*
G37*
G36*
X215595351Y-144685102D02*
G01*
X214503089Y-144815346D01*
X214372845Y-143723084D01*
X215465107Y-143592840D01*
X215595351Y-144685102D01*
G37*
G36*
X191843548Y-138564353D02*
G01*
X190751286Y-138694597D01*
X190621042Y-137602335D01*
X191713304Y-137472091D01*
X191843548Y-138564353D01*
G37*
G36*
X202834316Y-144927766D02*
G01*
X201742054Y-145058010D01*
X201611810Y-143965748D01*
X202704072Y-143835504D01*
X202834316Y-144927766D01*
G37*
G36*
X190374027Y-147692563D02*
G01*
X189281765Y-147822807D01*
X189151521Y-146730545D01*
X190243783Y-146600301D01*
X190374027Y-147692563D01*
G37*
G36*
X192896159Y-147391817D02*
G01*
X191803897Y-147522061D01*
X191673653Y-146429799D01*
X192765915Y-146299555D01*
X192896159Y-147391817D01*
G37*
G36*
X210400713Y-144025528D02*
G01*
X209308451Y-144155772D01*
X209178207Y-143063510D01*
X210270469Y-142933266D01*
X210400713Y-144025528D01*
G37*
G36*
X212020607Y-136158385D02*
G01*
X210928345Y-136288629D01*
X210798101Y-135196367D01*
X211890363Y-135066123D01*
X212020607Y-136158385D01*
G37*
G36*
X194365680Y-138263607D02*
G01*
X193273418Y-138393851D01*
X193143174Y-137301589D01*
X194235436Y-137171345D01*
X194365680Y-138263607D01*
G37*
G36*
X200462556Y-146489578D02*
G01*
X199370294Y-146619822D01*
X199240050Y-145527560D01*
X200332312Y-145397316D01*
X200462556Y-146489578D01*
G37*
G36*
X217967110Y-143123290D02*
G01*
X216874848Y-143253534D01*
X216744604Y-142161272D01*
X217836866Y-142031028D01*
X217967110Y-143123290D01*
G37*
G36*
X189321416Y-138865099D02*
G01*
X188229154Y-138995343D01*
X188098910Y-137903081D01*
X189191172Y-137772837D01*
X189321416Y-138865099D01*
G37*
G36*
X204454210Y-137060623D02*
G01*
X203361948Y-137190867D01*
X203231704Y-136098605D01*
X204323966Y-135968361D01*
X204454210Y-137060623D01*
G37*
G36*
X209498475Y-136459131D02*
G01*
X208406213Y-136589375D01*
X208275969Y-135497113D01*
X209368231Y-135366869D01*
X209498475Y-136459131D01*
G37*
G36*
X189171043Y-137604033D02*
G01*
X188078781Y-137734277D01*
X187948537Y-136642015D01*
X189040799Y-136511771D01*
X189171043Y-137604033D01*
G37*
G36*
X212922845Y-143724782D02*
G01*
X211830583Y-143855026D01*
X211700339Y-142762764D01*
X212792601Y-142632520D01*
X212922845Y-143724782D01*
G37*
G36*
X206825969Y-135498811D02*
G01*
X205733707Y-135629055D01*
X205603463Y-134536793D01*
X206695725Y-134406549D01*
X206825969Y-135498811D01*
G37*
G36*
X206976342Y-136759877D02*
G01*
X205884080Y-136890121D01*
X205753836Y-135797859D01*
X206846098Y-135667615D01*
X206976342Y-136759877D01*
G37*
G36*
X201932078Y-137361369D02*
G01*
X200839816Y-137491613D01*
X200709572Y-136399351D01*
X201801834Y-136269107D01*
X201932078Y-137361369D01*
G37*
G36*
X217064872Y-135556892D02*
G01*
X215972610Y-135687136D01*
X215842366Y-134594874D01*
X216934628Y-134464630D01*
X217064872Y-135556892D01*
G37*
G36*
X213073218Y-144985848D02*
G01*
X211980956Y-145116092D01*
X211850712Y-144023830D01*
X212942974Y-143893586D01*
X213073218Y-144985848D01*
G37*
G36*
X196887813Y-137962861D02*
G01*
X195795551Y-138093105D01*
X195665307Y-137000843D01*
X196757569Y-136870599D01*
X196887813Y-137962861D01*
G37*
G36*
X205356448Y-144627020D02*
G01*
X204264186Y-144757264D01*
X204133942Y-143665002D01*
X205226204Y-143534758D01*
X205356448Y-144627020D01*
G37*
G36*
X211870234Y-134897318D02*
G01*
X210777972Y-135027562D01*
X210647728Y-133935300D01*
X211739990Y-133805056D01*
X211870234Y-134897318D01*
G37*
G36*
X204303837Y-135799557D02*
G01*
X203211575Y-135929801D01*
X203081331Y-134837539D01*
X204173593Y-134707295D01*
X204303837Y-135799557D01*
G37*
G36*
X194215307Y-137002541D02*
G01*
X193123045Y-137132785D01*
X192992801Y-136040523D01*
X194085063Y-135910279D01*
X194215307Y-137002541D01*
G37*
G36*
X192745786Y-146130750D02*
G01*
X191653524Y-146260994D01*
X191523280Y-145168732D01*
X192615542Y-145038488D01*
X192745786Y-146130750D01*
G37*
G36*
X191693175Y-137303287D02*
G01*
X190600913Y-137433531D01*
X190470669Y-136341269D01*
X191562931Y-136211025D01*
X191693175Y-137303287D01*
G37*
G36*
X195418292Y-147091071D02*
G01*
X194326030Y-147221315D01*
X194195786Y-146129053D01*
X195288048Y-145998809D01*
X195418292Y-147091071D01*
G37*
G36*
X197940424Y-146790324D02*
G01*
X196848162Y-146920568D01*
X196717918Y-145828306D01*
X197810180Y-145698062D01*
X197940424Y-146790324D01*
G37*
G36*
X199259572Y-136401049D02*
G01*
X198167310Y-136531293D01*
X198037066Y-135439031D01*
X199129328Y-135308787D01*
X199259572Y-136401049D01*
G37*
G36*
X215444978Y-143424036D02*
G01*
X214352716Y-143554280D01*
X214222472Y-142462018D01*
X215314734Y-142331774D01*
X215444978Y-143424036D01*
G37*
G36*
X199409945Y-137662115D02*
G01*
X198317683Y-137792359D01*
X198187439Y-136700097D01*
X199279701Y-136569853D01*
X199409945Y-137662115D01*
G37*
G36*
X216914499Y-134295826D02*
G01*
X215822237Y-134426070D01*
X215691993Y-133333808D01*
X216784255Y-133203564D01*
X216914499Y-134295826D01*
G37*
G36*
X209348102Y-135198065D02*
G01*
X208255840Y-135328309D01*
X208125596Y-134236047D01*
X209217858Y-134105803D01*
X209348102Y-135198065D01*
G37*
G36*
X196737440Y-136701795D02*
G01*
X195645178Y-136832039D01*
X195514934Y-135739777D01*
X196607196Y-135609533D01*
X196737440Y-136701795D01*
G37*
G36*
X197790051Y-145529258D02*
G01*
X196697789Y-145659502D01*
X196567545Y-144567240D01*
X197659807Y-144436996D01*
X197790051Y-145529258D01*
G37*
G36*
X205506821Y-145888086D02*
G01*
X204414559Y-146018330D01*
X204284315Y-144926068D01*
X205376577Y-144795824D01*
X205506821Y-145888086D01*
G37*
G36*
X218117483Y-144384356D02*
G01*
X217025221Y-144514600D01*
X216894977Y-143422338D01*
X217987239Y-143292094D01*
X218117483Y-144384356D01*
G37*
G36*
X214542740Y-135857639D02*
G01*
X213450478Y-135987883D01*
X213320234Y-134895621D01*
X214412496Y-134765377D01*
X214542740Y-135857639D01*
G37*
G36*
X190223654Y-146431497D02*
G01*
X189131392Y-146561741D01*
X189001148Y-145469479D01*
X190093410Y-145339235D01*
X190223654Y-146431497D01*
G37*
G36*
X201781705Y-136100303D02*
G01*
X200689443Y-136230547D01*
X200559199Y-135138285D01*
X201651461Y-135008041D01*
X201781705Y-136100303D01*
G37*
G36*
X202984689Y-146188832D02*
G01*
X201892427Y-146319076D01*
X201762183Y-145226814D01*
X202854445Y-145096570D01*
X202984689Y-146188832D01*
G37*
G04 #@! TD*
D15*
G04 #@! TO.C,RST*
X186959143Y-142526579D03*
G36*
G01*
X186261723Y-143821223D02*
X187949051Y-143614045D01*
G75*
G02*
X188004771Y-143657579I6093J-49627D01*
G01*
X188114453Y-144550871D01*
G75*
G02*
X188070919Y-144606591I-49627J-6093D01*
G01*
X186383591Y-144813769D01*
G75*
G02*
X186327871Y-144770235I-6093J49627D01*
G01*
X186218189Y-143876943D01*
G75*
G02*
X186261723Y-143821223I49627J6093D01*
G01*
G37*
G36*
G01*
X185847367Y-140446567D02*
X187534695Y-140239389D01*
G75*
G02*
X187590415Y-140282923I6093J-49627D01*
G01*
X187700097Y-141176215D01*
G75*
G02*
X187656563Y-141231935I-49627J-6093D01*
G01*
X185969235Y-141439113D01*
G75*
G02*
X185913515Y-141395579I-6093J49627D01*
G01*
X185803833Y-140502287D01*
G75*
G02*
X185847367Y-140446567I49627J6093D01*
G01*
G37*
G04 #@! TD*
G04 #@! TO.C,REF\u002A\u002A*
G36*
G01*
X270902691Y-123492962D02*
X271701520Y-123536225D01*
G75*
G02*
X271748743Y-123588856I-2704J-49927D01*
G01*
X271694664Y-124587393D01*
G75*
G02*
X271642033Y-124634616I-49927J2704D01*
G01*
X270843204Y-124591353D01*
G75*
G02*
X270795981Y-124538722I2704J49927D01*
G01*
X270850060Y-123540185D01*
G75*
G02*
X270902691Y-123492962I49927J-2704D01*
G01*
G37*
G36*
G01*
X270507916Y-130782279D02*
X271306745Y-130825542D01*
G75*
G02*
X271353968Y-130878173I-2704J-49927D01*
G01*
X271299889Y-131876710D01*
G75*
G02*
X271247258Y-131923933I-49927J2704D01*
G01*
X270448429Y-131880670D01*
G75*
G02*
X270401206Y-131828039I2704J49927D01*
G01*
X270455285Y-130829502D01*
G75*
G02*
X270507916Y-130782279I49927J-2704D01*
G01*
G37*
G36*
G01*
X272714682Y-130901794D02*
X273513511Y-130945057D01*
G75*
G02*
X273560734Y-130997688I-2704J-49927D01*
G01*
X273506655Y-131996225D01*
G75*
G02*
X273454024Y-132043448I-49927J2704D01*
G01*
X272655195Y-132000185D01*
G75*
G02*
X272607972Y-131947554I2704J49927D01*
G01*
X272662051Y-130949017D01*
G75*
G02*
X272714682Y-130901794I49927J-2704D01*
G01*
G37*
G36*
G01*
X273109457Y-123612476D02*
X273908286Y-123655739D01*
G75*
G02*
X273955509Y-123708370I-2704J-49927D01*
G01*
X273901430Y-124706907D01*
G75*
G02*
X273848799Y-124754130I-49927J2704D01*
G01*
X273049970Y-124710867D01*
G75*
G02*
X273002747Y-124658236I2704J49927D01*
G01*
X273056826Y-123659699D01*
G75*
G02*
X273109457Y-123612476I49927J-2704D01*
G01*
G37*
G36*
G01*
X269576977Y-129480030D02*
X271074782Y-129561148D01*
G75*
G02*
X271122005Y-129613779I-2704J-49927D01*
G01*
X271084150Y-130312755D01*
G75*
G02*
X271031519Y-130359978I-49927J2704D01*
G01*
X269533714Y-130278860D01*
G75*
G02*
X269486491Y-130226229I2704J49927D01*
G01*
X269524346Y-129527253D01*
G75*
G02*
X269576977Y-129480030I49927J-2704D01*
G01*
G37*
G36*
G01*
X269658095Y-127982225D02*
X271155900Y-128063343D01*
G75*
G02*
X271203123Y-128115974I-2704J-49927D01*
G01*
X271165268Y-128814950D01*
G75*
G02*
X271112637Y-128862173I-49927J2704D01*
G01*
X269614832Y-128781055D01*
G75*
G02*
X269567609Y-128728424I2704J49927D01*
G01*
X269605464Y-128029448D01*
G75*
G02*
X269658095Y-127982225I49927J-2704D01*
G01*
G37*
G36*
G01*
X269820332Y-124986615D02*
X271318137Y-125067733D01*
G75*
G02*
X271365360Y-125120364I-2704J-49927D01*
G01*
X271327505Y-125819340D01*
G75*
G02*
X271274874Y-125866563I-49927J2704D01*
G01*
X269777069Y-125785445D01*
G75*
G02*
X269729846Y-125732814I2704J49927D01*
G01*
X269767701Y-125033838D01*
G75*
G02*
X269820332Y-124986615I49927J-2704D01*
G01*
G37*
D16*
X272102232Y-129266280D03*
X272264468Y-126270670D03*
G04 #@! TD*
G04 #@! TO.C,BAT*
G36*
G01*
X222532525Y-139994614D02*
X222532525Y-139994614D01*
G75*
G02*
X223165175Y-139187766I719749J87099D01*
G01*
X223165175Y-139187766D01*
G75*
G02*
X223972023Y-139820416I87099J-719749D01*
G01*
X223972023Y-139820416D01*
G75*
G02*
X223339373Y-140627264I-719749J-87099D01*
G01*
X223339373Y-140627264D01*
G75*
G02*
X222532525Y-139994614I-87099J719749D01*
G01*
G37*
G36*
G01*
X222373343Y-138679211D02*
X222211158Y-137338988D01*
G75*
G02*
X222254789Y-137283343I49638J6007D01*
G01*
X223595012Y-137121158D01*
G75*
G02*
X223650657Y-137164789I6007J-49638D01*
G01*
X223812842Y-138505012D01*
G75*
G02*
X223769211Y-138560657I-49638J-6007D01*
G01*
X222428988Y-138722842D01*
G75*
G02*
X222373343Y-138679211I-6007J49638D01*
G01*
G37*
G04 #@! TD*
G04 #@! TO.C,REF\u002A\u002A*
X272264468Y-126270670D03*
X272102232Y-129266280D03*
G04 #@! TD*
D15*
G04 #@! TO.C,RST*
X186959143Y-142526579D03*
G04 #@! TD*
M02*
