0
SECTION
2
HEADER
9
$INSUNITS
70
4
0
ENDSEC
0
SECTION
2
TABLES
0
TABLE
2
LTYPE
0
LTYPE
72
65
70
64
2
CONTINUOUS
3
______
73
0
40
0
0
ENDTAB
0
TABLE
2
LAYER
0
ENDTAB
0
ENDSEC
0
SECTION
2
ENTITIES
0
ARC
8
0
10
4.977027
20
5.7903965
40
1
50
162.0000049
51
192
0
LINE
8
0
10
3.9988794
20
5.5824848
11
11.8995236
21
-31.587124
0
LINE
8
0
10
85.4683988
20
-16.9713934
11
85.4685054
21
-16.9718948
0
LINE
8
0
10
13.0855829
20
-32.3573599
11
85.4685054
21
-16.9718948
0
ARC
8
0
10
1.4425282
20
22.4189057
40
1
50
161.9999994
51
192
0
LINE
8
0
10
0.4643806
20
22.210994
11
3.7909676
21
6.5606324
0
ARC
8
0
10
4.7691152
20
6.7685441
40
1
50
192
51
222.000005
0
LINE
8
0
10
-2.2998822
20
40.0255625
11
19.161992
21
44.5874247
0
ARC
8
0
10
-2.0919705
20
39.0474149
40
1
50
102
51
192
0
LINE
8
0
10
-3.0701181
20
38.8395032
11
0.2564689
21
23.1891416
0
ARC
8
0
10
1.2346165
20
23.3970533
40
1
50
192
51
222.0000007
0
LINE
8
0
10
19.9128144
20
57.5546176
11
40.8364943
21
59.3852024
0
ARC
8
0
10
19.9999702
20
56.5584229
40
1
50
95
51
185
0
LINE
8
0
10
19.0037755
20
56.4712672
11
19.950275
21
45.652728
0
LINE
8
0
10
59.7493386
20
61.0274217
11
59.7493386
21
64.6940884
0
ARC
8
0
10
58.7493386
20
64.6940884
40
1
50
0
51
90
0
LINE
8
0
10
58.7493386
20
65.6940884
11
42.7493386
21
65.6940884
0
ARC
8
0
10
42.7493386
20
64.6940884
40
1
50
90
51
180
0
LINE
8
0
10
41.7493386
20
64.6940884
11
41.7493386
21
60.3813971
0
LINE
8
0
10
77.5493386
20
58.1940883
11
77.5493386
21
59.0274217
0
ARC
8
0
10
76.5493386
20
59.0274217
40
1
50
0
51
90
0
LINE
8
0
10
60.7493386
20
60.0274217
11
76.5493386
21
60.0274217
0
LINE
8
0
10
95.5493385
20
-0.5940268
11
95.5493385
21
56.1940883
0
ARC
8
0
10
94.5493385
20
56.1940883
40
1
50
0
51
90
0
LINE
8
0
10
78.5493386
20
57.1940883
11
94.5493385
21
57.1940883
0
LINE
8
0
10
85.4683988
20
-16.9713934
11
92.4620759
21
-19.2437769
0
ARC
8
0
10
92.7710929
20
-18.2927204
40
1
50
252
51
342
0
LINE
8
0
10
93.7221494
20
-18.6017374
11
98.6664213
21
-3.3848331
0
ARC
8
0
10
97.7153648
20
-3.0758161
40
1
50
342
51
72
0
LINE
8
0
10
98.0243818
20
-2.1247596
11
96.2403215
21
-1.5450833
0
ARC
8
0
10
12.8776712
20
-31.3792123
40
1
50
192.0000005
51
282.0000005
0
ARC
8
0
10
96.5493385
20
-0.5940268
40
1
50
180
51
251.9999994
0
ARC
8
0
10
78.5493386
20
58.1940883
40
1
50
180
51
270
0
ARC
8
0
10
60.7493386
20
61.0274217
40
1
50
180
51
270
0
ARC
8
0
10
40.7493386
20
60.3813971
40
1
50
274.9999976
51
0
0
ARC
8
0
10
18.9540803
20
45.5655723
40
1
50
282.0000005
51
4.9999976
0
ENDSEC
0
EOF