0
SECTION
2
HEADER
9
$INSUNITS
70
4
0
ENDSEC
0
SECTION
2
TABLES
0
TABLE
2
LTYPE
0
LTYPE
72
65
70
64
2
CONTINUOUS
3
______
73
0
40
0
0
ENDTAB
0
TABLE
2
LAYER
0
ENDTAB
0
ENDSEC
0
SECTION
2
ENTITIES
0
LINE
8
0
10
8.5115257
20
-10.8381127
11
24.1618873
21
-7.5115257
0
ARC
8
0
10
23.9539756
20
-6.5333781
40
1
50
282
51
346.6866721
0
LINE
8
0
10
22.4045531
20
5.5658162
11
22.4028485
21
5.5738358
0
ARC
8
0
10
4.977027
20
5.7903965
40
1
50
162.0000049
51
192
0
LINE
8
0
10
3.9988794
20
5.5824848
11
7.3254664
21
-10.0678768
0
ARC
8
0
10
8.303614
20
-9.8599651
40
1
50
192
51
282
0
ARC
8
0
10
1.4425282
20
22.4189057
40
1
50
161.9999994
51
192
0
LINE
8
0
10
0.4643806
20
22.210994
11
3.7909676
21
6.5606324
0
ARC
8
0
10
4.7691152
20
6.7685441
40
1
50
192
51
222.000005
0
LINE
8
0
10
-2.2998822
20
40.0255625
11
20.0273839
21
44.7713694
0
ARC
8
0
10
-2.0919705
20
39.0474149
40
1
50
102
51
192
0
LINE
8
0
10
-3.0701181
20
38.8395032
11
0.2564689
21
23.1891416
0
ARC
8
0
10
1.2346165
20
23.3970533
40
1
50
192
51
222.0000007
0
LINE
8
0
10
22.4057154
20
5.5740866
11
22.4028485
21
5.5738358
0
LINE
8
0
10
19.9128144
20
57.5546176
11
41.7493386
21
59.4650659
0
ARC
8
0
10
19.9999702
20
56.5584229
40
1
50
95
51
185
0
LINE
8
0
10
19.0037755
20
56.4712672
11
20.0273839
21
44.7713694
0
LINE
8
0
10
53.5493386
20
65.6940884
11
42.7493386
21
65.6940884
0
ARC
8
0
10
42.7493386
20
64.6940884
40
1
50
90
51
180
0
LINE
8
0
10
41.7493386
20
64.6940884
11
41.7493386
21
59.4650659
0
LINE
8
0
10
53.5493386
20
65.7074217
11
75.5493385
21
65.7074217
0
LINE
8
0
10
53.5493386
20
65.6940884
11
53.5493386
21
65.7074217
0
LINE
8
0
10
97.5493385
20
-1.9704087
11
97.5493385
21
79.1940883
0
LINE
8
0
10
75.5493385
20
79.1940883
11
97.5493385
21
79.1940883
0
LINE
8
0
10
75.5493385
20
65.7074217
11
75.5493385
21
79.1940883
0
LINE
8
0
10
24.9271009
20
-6.7636542
11
76.2525116
21
-13.9769702
0
LINE
8
0
10
22.4045531
20
5.5658162
11
22.4057154
21
5.5740866
0
LINE
8
0
10
76.2525116
20
-13.9769702
11
92.4620759
21
-19.2437769
0
ARC
8
0
10
92.7710929
20
-18.2927204
40
1
50
252
51
342
0
LINE
8
0
10
93.7221494
20
-18.6017374
11
98.6664213
21
-3.3848331
0
ARC
8
0
10
97.7153648
20
-3.0758161
40
1
50
342
51
72
0
LINE
8
0
10
98.0243818
20
-2.1247596
11
97.5493385
21
-1.9704087
0
ENDSEC
0
EOF